<svg version="1.1" xmlns="http://www.w3.org/2000/svg" xmlns:xlink="http://www.w3.org/1999/xlink" width="409" height="114"><defs/><g><text fill="#eeeeee" stroke="none" font-family="Arial" font-size="24px" font-style="normal" font-weight="normal" text-decoration="none" x="0" y="0">UNREGISTERED</text><text fill="#eeeeee" stroke="none" font-family="Arial" font-size="24px" font-style="normal" font-weight="normal" text-decoration="none" x="0" y="30">UNREGISTERED</text><text fill="#eeeeee" stroke="none" font-family="Arial" font-size="24px" font-style="normal" font-weight="normal" text-decoration="none" x="0" y="60">UNREGISTERED</text><text fill="#eeeeee" stroke="none" font-family="Arial" font-size="24px" font-style="normal" font-weight="normal" text-decoration="none" x="0" y="90">UNREGISTERED</text><text fill="#eeeeee" stroke="none" font-family="Arial" font-size="24px" font-style="normal" font-weight="normal" text-decoration="none" x="200" y="0">UNREGISTERED</text><text fill="#eeeeee" stroke="none" font-family="Arial" font-size="24px" font-style="normal" font-weight="normal" text-decoration="none" x="200" y="30">UNREGISTERED</text><text fill="#eeeeee" stroke="none" font-family="Arial" font-size="24px" font-style="normal" font-weight="normal" text-decoration="none" x="200" y="60">UNREGISTERED</text><text fill="#eeeeee" stroke="none" font-family="Arial" font-size="24px" font-style="normal" font-weight="normal" text-decoration="none" x="200" y="90">UNREGISTERED</text><text fill="#eeeeee" stroke="none" font-family="Arial" font-size="24px" font-style="normal" font-weight="normal" text-decoration="none" x="400" y="0">UNREGISTERED</text><text fill="#eeeeee" stroke="none" font-family="Arial" font-size="24px" font-style="normal" font-weight="normal" text-decoration="none" x="400" y="30">UNREGISTERED</text><text fill="#eeeeee" stroke="none" font-family="Arial" font-size="24px" font-style="normal" font-weight="normal" text-decoration="none" x="400" y="60">UNREGISTERED</text><text fill="#eeeeee" stroke="none" font-family="Arial" font-size="24px" font-style="normal" font-weight="normal" text-decoration="none" x="400" y="90">UNREGISTERED</text><g transform="translate(-207,-291) scale(1,1)"><path fill="#ffffff" stroke="none" d="M 250.02116672585228 310.68 C 250.02116672585228 305.886167936 253.9070090507977 302 258.700439453125 302 C 263.49386985545226 302 267.37971218039775 305.886167936 267.37971218039775 310.68 C 267.37971218039775 315.473832064 263.49386985545226 319.36 258.700439453125 319.36 C 253.9070090507977 319.36 250.02116672585228 315.473832064 250.02116672585228 310.68 Z"/></g><g transform="translate(-207,-291) scale(1,1)"><path fill="none" stroke="#000000" d="M 250.02116672585228 310.68 C 250.02116672585228 305.886167936 253.9070090507977 302 258.700439453125 302 C 263.49386985545226 302 267.37971218039775 305.886167936 267.37971218039775 310.68 C 267.37971218039775 315.473832064 263.49386985545226 319.36 258.700439453125 319.36 C 253.9070090507977 319.36 250.02116672585228 315.473832064 250.02116672585228 310.68 Z" stroke-miterlimit="10"/></g><g transform="translate(-207,-291) scale(1,1)"><path fill="none" stroke="#000000" d="M 258.700439453125 319.36 L 258.700439453125 336.64" stroke-miterlimit="10"/></g><g transform="translate(-207,-291) scale(1,1)"><path fill="none" stroke="#000000" d="M 249.51062127130683 325.84 L 267.89025763494317 325.84" stroke-miterlimit="10"/></g><g transform="translate(-207,-291) scale(1,1)"><path fill="none" stroke="#000000" d="M 258.700439453125 336.64 L 245.93680308948865 354" stroke-miterlimit="10"/></g><g transform="translate(-207,-291) scale(1,1)"><path fill="none" stroke="#000000" d="M 258.700439453125 336.64 L 271.46407581676135 354" stroke-miterlimit="10"/></g><g transform="translate(-207,-291) scale(1,1)"><g><path fill="none" stroke="none"/><text fill="#000000" stroke="none" font-family="Arial" font-size="13px" font-style="normal" font-weight="bold" text-decoration="none" x="242.082275390625" y="374.5">lojista</text></g></g><g transform="translate(-207,-291) scale(1,1)"><g><path fill="none" stroke="none"/><text fill="#000000" stroke="none" font-family="Arial" font-size="13px" font-style="normal" font-weight="normal" text-decoration="none" x="221.5" y="389.5">(from atores)</text></g></g><g transform="translate(-207,-291) scale(1,1)"><path fill="#C0C0C0" stroke="none" d="M 447 354.5 C 447 339.312168 484.1603616 327 530 327 C 575.8396384 327 613 339.312168 613 354.5 C 613 369.687832 575.8396384 382 530 382 C 484.1603616 382 447 369.687832 447 354.5 Z" opacity="0.2"/></g><g transform="translate(-207,-291) scale(1,1)"><path fill="#ffffff" stroke="none" d="M 440 347.5 C 440 332.312168 477.1603616 320 523 320 C 568.8396384 320 606 332.312168 606 347.5 C 606 362.687832 568.8396384 375 523 375 C 477.1603616 375 440 362.687832 440 347.5 Z"/></g><g transform="translate(-207,-291) scale(1,1)"><path fill="none" stroke="#000000" d="M 440 347.5 C 440 332.312168 477.1603616 320 523 320 C 568.8396384 320 606 332.312168 606 347.5 C 606 362.687832 568.8396384 375 523 375 C 477.1603616 375 440 362.687832 440 347.5 Z" stroke-miterlimit="10"/></g><g transform="translate(-207,-291) scale(1,1)"><g><path fill="none" stroke="none"/><text fill="#000000" stroke="none" font-family="Arial" font-size="13px" font-style="normal" font-weight="bold" text-decoration="none" x="486.504150390625" y="347">Efetuar login</text></g></g><g transform="translate(-207,-291) scale(1,1)"><g><path fill="none" stroke="none"/><text fill="#000000" stroke="none" font-family="Arial" font-size="13px" font-style="normal" font-weight="normal" text-decoration="none" x="468.813232421875" y="362">(from caso de uso)</text></g></g><g transform="translate(-207,-291) scale(1,1)"><path fill="none" stroke="#000000" d="M 301 348 L 439 347" stroke-miterlimit="10"/></g><g transform="translate(-207,-291) scale(1,1)"><path fill="none" stroke="#000000" d="M 428.8680949037903 351.28304787755167 L 439 347 L 428.80708900176813 342.864233398495" stroke-miterlimit="10"/></g></g></svg>