<svg version="1.1" xmlns="http://www.w3.org/2000/svg" xmlns:xlink="http://www.w3.org/1999/xlink" width="570" height="255"><defs/><g><text fill="#eeeeee" stroke="none" font-family="Arial" font-size="24px" font-style="normal" font-weight="normal" text-decoration="none" x="0" y="0">UNREGISTERED</text><text fill="#eeeeee" stroke="none" font-family="Arial" font-size="24px" font-style="normal" font-weight="normal" text-decoration="none" x="0" y="30">UNREGISTERED</text><text fill="#eeeeee" stroke="none" font-family="Arial" font-size="24px" font-style="normal" font-weight="normal" text-decoration="none" x="0" y="60">UNREGISTERED</text><text fill="#eeeeee" stroke="none" font-family="Arial" font-size="24px" font-style="normal" font-weight="normal" text-decoration="none" x="0" y="90">UNREGISTERED</text><text fill="#eeeeee" stroke="none" font-family="Arial" font-size="24px" font-style="normal" font-weight="normal" text-decoration="none" x="0" y="120">UNREGISTERED</text><text fill="#eeeeee" stroke="none" font-family="Arial" font-size="24px" font-style="normal" font-weight="normal" text-decoration="none" x="0" y="150">UNREGISTERED</text><text fill="#eeeeee" stroke="none" font-family="Arial" font-size="24px" font-style="normal" font-weight="normal" text-decoration="none" x="0" y="180">UNREGISTERED</text><text fill="#eeeeee" stroke="none" font-family="Arial" font-size="24px" font-style="normal" font-weight="normal" text-decoration="none" x="0" y="210">UNREGISTERED</text><text fill="#eeeeee" stroke="none" font-family="Arial" font-size="24px" font-style="normal" font-weight="normal" text-decoration="none" x="0" y="240">UNREGISTERED</text><text fill="#eeeeee" stroke="none" font-family="Arial" font-size="24px" font-style="normal" font-weight="normal" text-decoration="none" x="200" y="0">UNREGISTERED</text><text fill="#eeeeee" stroke="none" font-family="Arial" font-size="24px" font-style="normal" font-weight="normal" text-decoration="none" x="200" y="30">UNREGISTERED</text><text fill="#eeeeee" stroke="none" font-family="Arial" font-size="24px" font-style="normal" font-weight="normal" text-decoration="none" x="200" y="60">UNREGISTERED</text><text fill="#eeeeee" stroke="none" font-family="Arial" font-size="24px" font-style="normal" font-weight="normal" text-decoration="none" x="200" y="90">UNREGISTERED</text><text fill="#eeeeee" stroke="none" font-family="Arial" font-size="24px" font-style="normal" font-weight="normal" text-decoration="none" x="200" y="120">UNREGISTERED</text><text fill="#eeeeee" stroke="none" font-family="Arial" font-size="24px" font-style="normal" font-weight="normal" text-decoration="none" x="200" y="150">UNREGISTERED</text><text fill="#eeeeee" stroke="none" font-family="Arial" font-size="24px" font-style="normal" font-weight="normal" text-decoration="none" x="200" y="180">UNREGISTERED</text><text fill="#eeeeee" stroke="none" font-family="Arial" font-size="24px" font-style="normal" font-weight="normal" text-decoration="none" x="200" y="210">UNREGISTERED</text><text fill="#eeeeee" stroke="none" font-family="Arial" font-size="24px" font-style="normal" font-weight="normal" text-decoration="none" x="200" y="240">UNREGISTERED</text><text fill="#eeeeee" stroke="none" font-family="Arial" font-size="24px" font-style="normal" font-weight="normal" text-decoration="none" x="400" y="0">UNREGISTERED</text><text fill="#eeeeee" stroke="none" font-family="Arial" font-size="24px" font-style="normal" font-weight="normal" text-decoration="none" x="400" y="30">UNREGISTERED</text><text fill="#eeeeee" stroke="none" font-family="Arial" font-size="24px" font-style="normal" font-weight="normal" text-decoration="none" x="400" y="60">UNREGISTERED</text><text fill="#eeeeee" stroke="none" font-family="Arial" font-size="24px" font-style="normal" font-weight="normal" text-decoration="none" x="400" y="90">UNREGISTERED</text><text fill="#eeeeee" stroke="none" font-family="Arial" font-size="24px" font-style="normal" font-weight="normal" text-decoration="none" x="400" y="120">UNREGISTERED</text><text fill="#eeeeee" stroke="none" font-family="Arial" font-size="24px" font-style="normal" font-weight="normal" text-decoration="none" x="400" y="150">UNREGISTERED</text><text fill="#eeeeee" stroke="none" font-family="Arial" font-size="24px" font-style="normal" font-weight="normal" text-decoration="none" x="400" y="180">UNREGISTERED</text><text fill="#eeeeee" stroke="none" font-family="Arial" font-size="24px" font-style="normal" font-weight="normal" text-decoration="none" x="400" y="210">UNREGISTERED</text><text fill="#eeeeee" stroke="none" font-family="Arial" font-size="24px" font-style="normal" font-weight="normal" text-decoration="none" x="400" y="240">UNREGISTERED</text><g transform="translate(-190,-265) scale(1,1)"><path fill="#ffffff" stroke="none" d="M 239.02116672585228 284.68 C 239.02116672585228 279.886167936 242.9070090507977 276 247.700439453125 276 C 252.4938698554523 276 256.37971218039775 279.886167936 256.37971218039775 284.68 C 256.37971218039775 289.473832064 252.4938698554523 293.36 247.700439453125 293.36 C 242.9070090507977 293.36 239.02116672585228 289.473832064 239.02116672585228 284.68 Z"/></g><g transform="translate(-190,-265) scale(1,1)"><path fill="none" stroke="#000000" d="M 239.02116672585228 284.68 C 239.02116672585228 279.886167936 242.9070090507977 276 247.700439453125 276 C 252.4938698554523 276 256.37971218039775 279.886167936 256.37971218039775 284.68 C 256.37971218039775 289.473832064 252.4938698554523 293.36 247.700439453125 293.36 C 242.9070090507977 293.36 239.02116672585228 289.473832064 239.02116672585228 284.68 Z" stroke-miterlimit="10"/></g><g transform="translate(-190,-265) scale(1,1)"><path fill="none" stroke="#000000" d="M 247.700439453125 293.36 L 247.700439453125 310.64" stroke-miterlimit="10"/></g><g transform="translate(-190,-265) scale(1,1)"><path fill="none" stroke="#000000" d="M 238.51062127130683 299.84 L 256.89025763494317 299.84" stroke-miterlimit="10"/></g><g transform="translate(-190,-265) scale(1,1)"><path fill="none" stroke="#000000" d="M 247.700439453125 310.64 L 234.93680308948865 328" stroke-miterlimit="10"/></g><g transform="translate(-190,-265) scale(1,1)"><path fill="none" stroke="#000000" d="M 247.700439453125 310.64 L 260.46407581676135 328" stroke-miterlimit="10"/></g><g transform="translate(-190,-265) scale(1,1)"><g><path fill="none" stroke="none"/><text fill="#000000" stroke="none" font-family="Arial" font-size="13px" font-style="normal" font-weight="bold" text-decoration="none" x="216.6318359375" y="348.5">comprador</text></g></g><g transform="translate(-190,-265) scale(1,1)"><g><path fill="none" stroke="none"/><text fill="#000000" stroke="none" font-family="Arial" font-size="13px" font-style="normal" font-weight="normal" text-decoration="none" x="210.5" y="363.5">(from atores)</text></g></g><g transform="translate(-190,-265) scale(1,1)"><path fill="#C0C0C0" stroke="none" d="M 407 466.5 C 407 451.312168 444.1603616 439 490 439 C 535.8396384 439 573 451.312168 573 466.5 C 573 481.687832 535.8396384 494 490 494 C 444.1603616 494 407 481.687832 407 466.5 Z" opacity="0.2"/></g><g transform="translate(-190,-265) scale(1,1)"><path fill="#ffffff" stroke="none" d="M 400 459.5 C 400 444.312168 437.1603616 432 483 432 C 528.8396384 432 566 444.312168 566 459.5 C 566 474.687832 528.8396384 487 483 487 C 437.1603616 487 400 474.687832 400 459.5 Z"/></g><g transform="translate(-190,-265) scale(1,1)"><path fill="none" stroke="#000000" d="M 400 459.5 C 400 444.312168 437.1603616 432 483 432 C 528.8396384 432 566 444.312168 566 459.5 C 566 474.687832 528.8396384 487 483 487 C 437.1603616 487 400 474.687832 400 459.5 Z" stroke-miterlimit="10"/></g><g transform="translate(-190,-265) scale(1,1)"><g><path fill="none" stroke="none"/><text fill="#000000" stroke="none" font-family="Arial" font-size="13px" font-style="normal" font-weight="bold" text-decoration="none" x="442.53369140625" y="459">mater produto</text></g></g><g transform="translate(-190,-265) scale(1,1)"><g><path fill="none" stroke="none"/><text fill="#000000" stroke="none" font-family="Arial" font-size="13px" font-style="normal" font-weight="normal" text-decoration="none" x="428.813232421875" y="474">(from caso de uso)</text></g></g><g transform="translate(-190,-265) scale(1,1)"><path fill="none" stroke="#000000" d="M 290 322 L 583 323" stroke-miterlimit="10"/></g><g transform="translate(-190,-265) scale(1,1)"><path fill="none" stroke="#000000" d="M 572.8230174599793 327.1748085441268 L 583 323 L 572.8517512022266 318.75582206564184" stroke-miterlimit="10"/></g><g transform="translate(-190,-265) scale(1,1)"><path fill="#C0C0C0" stroke="none" d="M 591 330.5 C 591 315.312168 628.1603616 303 674 303 C 719.8396384 303 757 315.312168 757 330.5 C 757 345.687832 719.8396384 358 674 358 C 628.1603616 358 591 345.687832 591 330.5 Z" opacity="0.2"/></g><g transform="translate(-190,-265) scale(1,1)"><path fill="#ffffff" stroke="none" d="M 584 323.5 C 584 308.312168 621.1603616 296 667 296 C 712.8396384 296 750 308.312168 750 323.5 C 750 338.687832 712.8396384 351 667 351 C 621.1603616 351 584 338.687832 584 323.5 Z"/></g><g transform="translate(-190,-265) scale(1,1)"><path fill="none" stroke="#000000" d="M 584 323.5 C 584 308.312168 621.1603616 296 667 296 C 712.8396384 296 750 308.312168 750 323.5 C 750 338.687832 712.8396384 351 667 351 C 621.1603616 351 584 338.687832 584 323.5 Z" stroke-miterlimit="10"/></g><g transform="translate(-190,-265) scale(1,1)"><g><path fill="none" stroke="none"/><text fill="#000000" stroke="none" font-family="Arial" font-size="13px" font-style="normal" font-weight="bold" text-decoration="none" x="631.589599609375" y="323">lista produto</text></g></g><g transform="translate(-190,-265) scale(1,1)"><g><path fill="none" stroke="none"/><text fill="#000000" stroke="none" font-family="Arial" font-size="13px" font-style="normal" font-weight="normal" text-decoration="none" x="612.813232421875" y="338">(from caso de uso)</text></g></g><g transform="translate(-190,-265) scale(1,1)"><path fill="none" stroke="#000000" d="M 628 352 L 521 431" stroke-miterlimit="10" stroke-dasharray="3"/></g><g transform="translate(-190,-265) scale(1,1)"><path fill="none" stroke="#000000" d="M 526.67543587306 421.5771857892249 L 521 431 L 531.67607501833 428.35020336573007" stroke-miterlimit="10"/></g><g transform="translate(-190,-265) scale(1,1)"><g><path fill="none" stroke="none"/><text fill="#000000" stroke="none" font-family="Arial" font-size="13px" font-style="normal" font-weight="normal" text-decoration="none" x="565.5" y="420.5">«extend»</text></g></g><g transform="translate(-190,-265) scale(1,1)"><path fill="#ffffff" stroke="none" d="M 233.02116672585228 425.68 C 233.02116672585228 420.886167936 236.90700905079774 417 241.700439453125 417 C 246.49386985545226 417 250.37971218039772 420.886167936 250.37971218039772 425.68 C 250.37971218039772 430.473832064 246.49386985545226 434.36 241.700439453125 434.36 C 236.90700905079774 434.36 233.02116672585228 430.473832064 233.02116672585228 425.68 Z"/></g><g transform="translate(-190,-265) scale(1,1)"><path fill="none" stroke="#000000" d="M 233.02116672585228 425.68 C 233.02116672585228 420.886167936 236.90700905079774 417 241.700439453125 417 C 246.49386985545226 417 250.37971218039772 420.886167936 250.37971218039772 425.68 C 250.37971218039772 430.473832064 246.49386985545226 434.36 241.700439453125 434.36 C 236.90700905079774 434.36 233.02116672585228 430.473832064 233.02116672585228 425.68 Z" stroke-miterlimit="10"/></g><g transform="translate(-190,-265) scale(1,1)"><path fill="none" stroke="#000000" d="M 241.700439453125 434.36 L 241.700439453125 451.64" stroke-miterlimit="10"/></g><g transform="translate(-190,-265) scale(1,1)"><path fill="none" stroke="#000000" d="M 232.51062127130683 440.84 L 250.89025763494317 440.84" stroke-miterlimit="10"/></g><g transform="translate(-190,-265) scale(1,1)"><path fill="none" stroke="#000000" d="M 241.700439453125 451.64 L 228.93680308948865 469" stroke-miterlimit="10"/></g><g transform="translate(-190,-265) scale(1,1)"><path fill="none" stroke="#000000" d="M 241.700439453125 451.64 L 254.46407581676135 469" stroke-miterlimit="10"/></g><g transform="translate(-190,-265) scale(1,1)"><g><path fill="none" stroke="none"/><text fill="#000000" stroke="none" font-family="Arial" font-size="13px" font-style="normal" font-weight="bold" text-decoration="none" x="225.082275390625" y="489.5">lojista</text></g></g><g transform="translate(-190,-265) scale(1,1)"><g><path fill="none" stroke="none"/><text fill="#000000" stroke="none" font-family="Arial" font-size="13px" font-style="normal" font-weight="normal" text-decoration="none" x="204.5" y="504.5">(from atores)</text></g></g><g transform="translate(-190,-265) scale(1,1)"><path fill="none" stroke="#000000" d="M 284 462 L 399 460" stroke-miterlimit="10"/></g><g transform="translate(-190,-265) scale(1,1)"><path fill="none" stroke="#000000" d="M 388.9120596179367 464.38559674935306 L 399 460 L 388.7656637466202 455.9678341486547" stroke-miterlimit="10"/></g></g></svg>