<svg version="1.1" xmlns="http://www.w3.org/2000/svg" xmlns:xlink="http://www.w3.org/1999/xlink" width="341.57080078125" height="314"><defs/><g><text fill="#eeeeee" stroke="none" font-family="Arial" font-size="24px" font-style="normal" font-weight="normal" text-decoration="none" x="0" y="0">UNREGISTERED</text><text fill="#eeeeee" stroke="none" font-family="Arial" font-size="24px" font-style="normal" font-weight="normal" text-decoration="none" x="0" y="30">UNREGISTERED</text><text fill="#eeeeee" stroke="none" font-family="Arial" font-size="24px" font-style="normal" font-weight="normal" text-decoration="none" x="0" y="60">UNREGISTERED</text><text fill="#eeeeee" stroke="none" font-family="Arial" font-size="24px" font-style="normal" font-weight="normal" text-decoration="none" x="0" y="90">UNREGISTERED</text><text fill="#eeeeee" stroke="none" font-family="Arial" font-size="24px" font-style="normal" font-weight="normal" text-decoration="none" x="0" y="120">UNREGISTERED</text><text fill="#eeeeee" stroke="none" font-family="Arial" font-size="24px" font-style="normal" font-weight="normal" text-decoration="none" x="0" y="150">UNREGISTERED</text><text fill="#eeeeee" stroke="none" font-family="Arial" font-size="24px" font-style="normal" font-weight="normal" text-decoration="none" x="0" y="180">UNREGISTERED</text><text fill="#eeeeee" stroke="none" font-family="Arial" font-size="24px" font-style="normal" font-weight="normal" text-decoration="none" x="0" y="210">UNREGISTERED</text><text fill="#eeeeee" stroke="none" font-family="Arial" font-size="24px" font-style="normal" font-weight="normal" text-decoration="none" x="0" y="240">UNREGISTERED</text><text fill="#eeeeee" stroke="none" font-family="Arial" font-size="24px" font-style="normal" font-weight="normal" text-decoration="none" x="0" y="270">UNREGISTERED</text><text fill="#eeeeee" stroke="none" font-family="Arial" font-size="24px" font-style="normal" font-weight="normal" text-decoration="none" x="0" y="300">UNREGISTERED</text><text fill="#eeeeee" stroke="none" font-family="Arial" font-size="24px" font-style="normal" font-weight="normal" text-decoration="none" x="200" y="0">UNREGISTERED</text><text fill="#eeeeee" stroke="none" font-family="Arial" font-size="24px" font-style="normal" font-weight="normal" text-decoration="none" x="200" y="30">UNREGISTERED</text><text fill="#eeeeee" stroke="none" font-family="Arial" font-size="24px" font-style="normal" font-weight="normal" text-decoration="none" x="200" y="60">UNREGISTERED</text><text fill="#eeeeee" stroke="none" font-family="Arial" font-size="24px" font-style="normal" font-weight="normal" text-decoration="none" x="200" y="90">UNREGISTERED</text><text fill="#eeeeee" stroke="none" font-family="Arial" font-size="24px" font-style="normal" font-weight="normal" text-decoration="none" x="200" y="120">UNREGISTERED</text><text fill="#eeeeee" stroke="none" font-family="Arial" font-size="24px" font-style="normal" font-weight="normal" text-decoration="none" x="200" y="150">UNREGISTERED</text><text fill="#eeeeee" stroke="none" font-family="Arial" font-size="24px" font-style="normal" font-weight="normal" text-decoration="none" x="200" y="180">UNREGISTERED</text><text fill="#eeeeee" stroke="none" font-family="Arial" font-size="24px" font-style="normal" font-weight="normal" text-decoration="none" x="200" y="210">UNREGISTERED</text><text fill="#eeeeee" stroke="none" font-family="Arial" font-size="24px" font-style="normal" font-weight="normal" text-decoration="none" x="200" y="240">UNREGISTERED</text><text fill="#eeeeee" stroke="none" font-family="Arial" font-size="24px" font-style="normal" font-weight="normal" text-decoration="none" x="200" y="270">UNREGISTERED</text><text fill="#eeeeee" stroke="none" font-family="Arial" font-size="24px" font-style="normal" font-weight="normal" text-decoration="none" x="200" y="300">UNREGISTERED</text><g transform="translate(-262,-174) scale(1,1)"><rect fill="#C0C0C0" stroke="none" x="511" y="191" width="89.57080078125" height="87" opacity="0.2"/></g><g transform="translate(-262,-174) scale(1,1)"><rect fill="#ffffff" stroke="none" x="504" y="184" width="89.57080078125" height="87"/></g><g transform="translate(-262,-174) scale(1,1)"><path fill="none" stroke="#000000" d="M 504 184 L 593.57080078125 184 L 593.57080078125 271 L 504 271 L 504 184 Z Z" stroke-miterlimit="10"/></g><g transform="translate(-262,-174) scale(1,1)"><path fill="none" stroke="#000000" d="M 504 209 L 593.57080078125 209" stroke-miterlimit="10"/></g><g transform="translate(-262,-174) scale(1,1)"><path fill="none" stroke="#000000" d="M 504 219 L 593.57080078125 219" stroke-miterlimit="10"/></g><g transform="translate(-262,-174) scale(1,1)"><g><path fill="none" stroke="none"/><text fill="#000000" stroke="none" font-family="Arial" font-size="13px" font-style="normal" font-weight="bold" text-decoration="none" x="531.80224609375" y="203.5">CLoja</text></g></g><g transform="translate(-262,-174) scale(1,1)"><g><path fill="none" stroke="none"/><text fill="#000000" stroke="none" font-family="Arial" font-size="13px" font-style="normal" font-weight="normal" text-decoration="none" x="509" y="236.5">+criar()</text></g></g><g transform="translate(-262,-174) scale(1,1)"><g><path fill="none" stroke="none"/><text fill="#000000" stroke="none" font-family="Arial" font-size="13px" font-style="normal" font-weight="normal" text-decoration="none" x="509" y="251.5">+consultar()</text></g></g><g transform="translate(-262,-174) scale(1,1)"><g><path fill="none" stroke="none"/><text fill="#000000" stroke="none" font-family="Arial" font-size="13px" font-style="normal" font-weight="normal" text-decoration="none" x="509" y="266.5">+listar()</text></g></g><g transform="translate(-262,-174) scale(1,1)"><rect fill="#C0C0C0" stroke="none" x="519" y="391" width="80" height="87" opacity="0.2"/></g><g transform="translate(-262,-174) scale(1,1)"><rect fill="#ffffff" stroke="none" x="512" y="384" width="80" height="87"/></g><g transform="translate(-262,-174) scale(1,1)"><path fill="none" stroke="#000000" d="M 512 384 L 592 384 L 592 471 L 512 471 L 512 384 Z Z" stroke-miterlimit="10"/></g><g transform="translate(-262,-174) scale(1,1)"><path fill="none" stroke="#000000" d="M 512 409 L 592 409" stroke-miterlimit="10"/></g><g transform="translate(-262,-174) scale(1,1)"><path fill="none" stroke="#000000" d="M 512 419 L 592 419" stroke-miterlimit="10"/></g><g transform="translate(-262,-174) scale(1,1)"><g><path fill="none" stroke="none"/><text fill="#000000" stroke="none" font-family="Arial" font-size="13px" font-style="normal" font-weight="bold" text-decoration="none" x="534.29638671875" y="403.5">MLoja</text></g></g><g transform="translate(-262,-174) scale(1,1)"><g><path fill="none" stroke="none"/><text fill="#000000" stroke="none" font-family="Arial" font-size="13px" font-style="normal" font-weight="normal" text-decoration="none" x="517" y="436.5">+criar()</text></g></g><g transform="translate(-262,-174) scale(1,1)"><g><path fill="none" stroke="none"/><text fill="#000000" stroke="none" font-family="Arial" font-size="13px" font-style="normal" font-weight="normal" text-decoration="none" x="517" y="451.5">+consutar()</text></g></g><g transform="translate(-262,-174) scale(1,1)"><g><path fill="none" stroke="none"/><text fill="#000000" stroke="none" font-family="Arial" font-size="13px" font-style="normal" font-weight="normal" text-decoration="none" x="517" y="466.5">+listar()</text></g></g><g transform="translate(-262,-174) scale(1,1)"><rect fill="#C0C0C0" stroke="none" x="303" y="191" width="89.57080078125" height="87" opacity="0.2"/></g><g transform="translate(-262,-174) scale(1,1)"><rect fill="#ffffff" stroke="none" x="296" y="184" width="89.57080078125" height="87"/></g><g transform="translate(-262,-174) scale(1,1)"><path fill="none" stroke="#000000" d="M 296 184 L 385.57080078125 184 L 385.57080078125 271 L 296 271 L 296 184 Z Z" stroke-miterlimit="10"/></g><g transform="translate(-262,-174) scale(1,1)"><path fill="none" stroke="#000000" d="M 296 209 L 385.57080078125 209" stroke-miterlimit="10"/></g><g transform="translate(-262,-174) scale(1,1)"><path fill="none" stroke="#000000" d="M 296 219 L 385.57080078125 219" stroke-miterlimit="10"/></g><g transform="translate(-262,-174) scale(1,1)"><g><path fill="none" stroke="none"/><text fill="#000000" stroke="none" font-family="Arial" font-size="13px" font-style="normal" font-weight="bold" text-decoration="none" x="324.160888671875" y="203.5">VLoja</text></g></g><g transform="translate(-262,-174) scale(1,1)"><g><path fill="none" stroke="none"/><text fill="#000000" stroke="none" font-family="Arial" font-size="13px" font-style="normal" font-weight="normal" text-decoration="none" x="301" y="236.5">+criar()</text></g></g><g transform="translate(-262,-174) scale(1,1)"><g><path fill="none" stroke="none"/><text fill="#000000" stroke="none" font-family="Arial" font-size="13px" font-style="normal" font-weight="normal" text-decoration="none" x="301" y="251.5">+consutar()</text></g></g><g transform="translate(-262,-174) scale(1,1)"><g><path fill="none" stroke="none"/><text fill="#000000" stroke="none" font-family="Arial" font-size="13px" font-style="normal" font-weight="normal" text-decoration="none" x="301" y="266.5">+listar()</text></g></g><g transform="translate(-262,-174) scale(1,1)"><rect fill="#C0C0C0" stroke="none" x="279" y="383" width="145.95703125" height="102" opacity="0.2"/></g><g transform="translate(-262,-174) scale(1,1)"><rect fill="#ffffff" stroke="none" x="272" y="376" width="145.95703125" height="102"/></g><g transform="translate(-262,-174) scale(1,1)"><path fill="none" stroke="#000000" d="M 272 376 L 417.95703125 376 L 417.95703125 478 L 272 478 L 272 376 Z Z" stroke-miterlimit="10"/></g><g transform="translate(-262,-174) scale(1,1)"><path fill="none" stroke="#000000" d="M 272 401 L 417.95703125 401" stroke-miterlimit="10"/></g><g transform="translate(-262,-174) scale(1,1)"><path fill="none" stroke="#000000" d="M 272 469 L 417.95703125 469" stroke-miterlimit="10"/></g><g transform="translate(-262,-174) scale(1,1)"><g><path fill="none" stroke="none"/><text fill="#000000" stroke="none" font-family="Arial" font-size="13px" font-style="normal" font-weight="bold" text-decoration="none" x="328.35400390625" y="395.5">ELoja</text></g></g><g transform="translate(-262,-174) scale(1,1)"><g><path fill="none" stroke="none"/><text fill="#000000" stroke="none" font-family="Arial" font-size="13px" font-style="normal" font-weight="normal" text-decoration="none" x="277" y="418.5">+nomeVendedor: String</text></g></g><g transform="translate(-262,-174) scale(1,1)"><g><path fill="none" stroke="none"/><text fill="#000000" stroke="none" font-family="Arial" font-size="13px" font-style="normal" font-weight="normal" text-decoration="none" x="277" y="433.5">+nomeLoja: String</text></g></g><g transform="translate(-262,-174) scale(1,1)"><g><path fill="none" stroke="none"/><text fill="#000000" stroke="none" font-family="Arial" font-size="13px" font-style="normal" font-weight="normal" text-decoration="none" x="277" y="448.5">+email: String</text></g></g><g transform="translate(-262,-174) scale(1,1)"><g><path fill="none" stroke="none"/><text fill="#000000" stroke="none" font-family="Arial" font-size="13px" font-style="normal" font-weight="normal" text-decoration="none" x="277" y="463.5">+senha: String</text></g></g><g transform="translate(-262,-174) scale(1,1)"><path fill="none" stroke="#000000" d="M 503 227 L 387 227" stroke-miterlimit="10" stroke-dasharray="3"/></g><g transform="translate(-262,-174) scale(1,1)"><path fill="none" stroke="#000000" d="M 397.16267485762415 222.790482243984 L 387 227 L 397.16267485762415 231.209517756016" stroke-miterlimit="10"/></g><g transform="translate(-262,-174) scale(1,1)"><path fill="none" stroke="#000000" d="M 551 383 L 549 272" stroke-miterlimit="10" stroke-dasharray="3"/></g><g transform="translate(-262,-174) scale(1,1)"><path fill="none" stroke="#000000" d="M 553.3919161570287 282.08519075028477 L 549 272 L 544.9742469279515 282.236860466124" stroke-miterlimit="10"/></g><g transform="translate(-262,-174) scale(1,1)"><path fill="none" stroke="#000000" d="M 343 375 L 341 272" stroke-miterlimit="10" stroke-dasharray="3"/></g><g transform="translate(-262,-174) scale(1,1)"><path fill="none" stroke="#000000" d="M 345.4060207072573 282.0790367360785 L 341 272 L 336.98857189624056 282.2424823440594" stroke-miterlimit="10"/></g><g transform="translate(-262,-174) scale(1,1)"><path fill="none" stroke="#000000" d="M 419 427 L 511 427" stroke-miterlimit="10" stroke-dasharray="3"/></g><g transform="translate(-262,-174) scale(1,1)"><path fill="none" stroke="#000000" d="M 500.83732514237585 431.209517756016 L 511 427 L 500.83732514237585 422.790482243984" stroke-miterlimit="10"/></g><g transform="translate(-262,-174) scale(1,1)"><path fill="none" stroke="#000000" d="M 397 375 L 503 271" stroke-miterlimit="10" stroke-dasharray="3"/></g><g transform="translate(-262,-174) scale(1,1)"><path fill="none" stroke="#000000" d="M 498.6938901483881 281.122125169442 L 503 271 L 492.79769717605956 275.1125438707225" stroke-miterlimit="10"/></g></g></svg>