<svg version="1.1" xmlns="http://www.w3.org/2000/svg" xmlns:xlink="http://www.w3.org/1999/xlink" width="616" height="274"><defs/><g><text fill="#eeeeee" stroke="none" font-family="Arial" font-size="24px" font-style="normal" font-weight="normal" text-decoration="none" x="0" y="0">UNREGISTERED</text><text fill="#eeeeee" stroke="none" font-family="Arial" font-size="24px" font-style="normal" font-weight="normal" text-decoration="none" x="0" y="30">UNREGISTERED</text><text fill="#eeeeee" stroke="none" font-family="Arial" font-size="24px" font-style="normal" font-weight="normal" text-decoration="none" x="0" y="60">UNREGISTERED</text><text fill="#eeeeee" stroke="none" font-family="Arial" font-size="24px" font-style="normal" font-weight="normal" text-decoration="none" x="0" y="90">UNREGISTERED</text><text fill="#eeeeee" stroke="none" font-family="Arial" font-size="24px" font-style="normal" font-weight="normal" text-decoration="none" x="0" y="120">UNREGISTERED</text><text fill="#eeeeee" stroke="none" font-family="Arial" font-size="24px" font-style="normal" font-weight="normal" text-decoration="none" x="0" y="150">UNREGISTERED</text><text fill="#eeeeee" stroke="none" font-family="Arial" font-size="24px" font-style="normal" font-weight="normal" text-decoration="none" x="0" y="180">UNREGISTERED</text><text fill="#eeeeee" stroke="none" font-family="Arial" font-size="24px" font-style="normal" font-weight="normal" text-decoration="none" x="0" y="210">UNREGISTERED</text><text fill="#eeeeee" stroke="none" font-family="Arial" font-size="24px" font-style="normal" font-weight="normal" text-decoration="none" x="0" y="240">UNREGISTERED</text><text fill="#eeeeee" stroke="none" font-family="Arial" font-size="24px" font-style="normal" font-weight="normal" text-decoration="none" x="0" y="270">UNREGISTERED</text><text fill="#eeeeee" stroke="none" font-family="Arial" font-size="24px" font-style="normal" font-weight="normal" text-decoration="none" x="200" y="0">UNREGISTERED</text><text fill="#eeeeee" stroke="none" font-family="Arial" font-size="24px" font-style="normal" font-weight="normal" text-decoration="none" x="200" y="30">UNREGISTERED</text><text fill="#eeeeee" stroke="none" font-family="Arial" font-size="24px" font-style="normal" font-weight="normal" text-decoration="none" x="200" y="60">UNREGISTERED</text><text fill="#eeeeee" stroke="none" font-family="Arial" font-size="24px" font-style="normal" font-weight="normal" text-decoration="none" x="200" y="90">UNREGISTERED</text><text fill="#eeeeee" stroke="none" font-family="Arial" font-size="24px" font-style="normal" font-weight="normal" text-decoration="none" x="200" y="120">UNREGISTERED</text><text fill="#eeeeee" stroke="none" font-family="Arial" font-size="24px" font-style="normal" font-weight="normal" text-decoration="none" x="200" y="150">UNREGISTERED</text><text fill="#eeeeee" stroke="none" font-family="Arial" font-size="24px" font-style="normal" font-weight="normal" text-decoration="none" x="200" y="180">UNREGISTERED</text><text fill="#eeeeee" stroke="none" font-family="Arial" font-size="24px" font-style="normal" font-weight="normal" text-decoration="none" x="200" y="210">UNREGISTERED</text><text fill="#eeeeee" stroke="none" font-family="Arial" font-size="24px" font-style="normal" font-weight="normal" text-decoration="none" x="200" y="240">UNREGISTERED</text><text fill="#eeeeee" stroke="none" font-family="Arial" font-size="24px" font-style="normal" font-weight="normal" text-decoration="none" x="200" y="270">UNREGISTERED</text><text fill="#eeeeee" stroke="none" font-family="Arial" font-size="24px" font-style="normal" font-weight="normal" text-decoration="none" x="400" y="0">UNREGISTERED</text><text fill="#eeeeee" stroke="none" font-family="Arial" font-size="24px" font-style="normal" font-weight="normal" text-decoration="none" x="400" y="30">UNREGISTERED</text><text fill="#eeeeee" stroke="none" font-family="Arial" font-size="24px" font-style="normal" font-weight="normal" text-decoration="none" x="400" y="60">UNREGISTERED</text><text fill="#eeeeee" stroke="none" font-family="Arial" font-size="24px" font-style="normal" font-weight="normal" text-decoration="none" x="400" y="90">UNREGISTERED</text><text fill="#eeeeee" stroke="none" font-family="Arial" font-size="24px" font-style="normal" font-weight="normal" text-decoration="none" x="400" y="120">UNREGISTERED</text><text fill="#eeeeee" stroke="none" font-family="Arial" font-size="24px" font-style="normal" font-weight="normal" text-decoration="none" x="400" y="150">UNREGISTERED</text><text fill="#eeeeee" stroke="none" font-family="Arial" font-size="24px" font-style="normal" font-weight="normal" text-decoration="none" x="400" y="180">UNREGISTERED</text><text fill="#eeeeee" stroke="none" font-family="Arial" font-size="24px" font-style="normal" font-weight="normal" text-decoration="none" x="400" y="210">UNREGISTERED</text><text fill="#eeeeee" stroke="none" font-family="Arial" font-size="24px" font-style="normal" font-weight="normal" text-decoration="none" x="400" y="240">UNREGISTERED</text><text fill="#eeeeee" stroke="none" font-family="Arial" font-size="24px" font-style="normal" font-weight="normal" text-decoration="none" x="400" y="270">UNREGISTERED</text><text fill="#eeeeee" stroke="none" font-family="Arial" font-size="24px" font-style="normal" font-weight="normal" text-decoration="none" x="600" y="0">UNREGISTERED</text><text fill="#eeeeee" stroke="none" font-family="Arial" font-size="24px" font-style="normal" font-weight="normal" text-decoration="none" x="600" y="30">UNREGISTERED</text><text fill="#eeeeee" stroke="none" font-family="Arial" font-size="24px" font-style="normal" font-weight="normal" text-decoration="none" x="600" y="60">UNREGISTERED</text><text fill="#eeeeee" stroke="none" font-family="Arial" font-size="24px" font-style="normal" font-weight="normal" text-decoration="none" x="600" y="90">UNREGISTERED</text><text fill="#eeeeee" stroke="none" font-family="Arial" font-size="24px" font-style="normal" font-weight="normal" text-decoration="none" x="600" y="120">UNREGISTERED</text><text fill="#eeeeee" stroke="none" font-family="Arial" font-size="24px" font-style="normal" font-weight="normal" text-decoration="none" x="600" y="150">UNREGISTERED</text><text fill="#eeeeee" stroke="none" font-family="Arial" font-size="24px" font-style="normal" font-weight="normal" text-decoration="none" x="600" y="180">UNREGISTERED</text><text fill="#eeeeee" stroke="none" font-family="Arial" font-size="24px" font-style="normal" font-weight="normal" text-decoration="none" x="600" y="210">UNREGISTERED</text><text fill="#eeeeee" stroke="none" font-family="Arial" font-size="24px" font-style="normal" font-weight="normal" text-decoration="none" x="600" y="240">UNREGISTERED</text><text fill="#eeeeee" stroke="none" font-family="Arial" font-size="24px" font-style="normal" font-weight="normal" text-decoration="none" x="600" y="270">UNREGISTERED</text><g transform="translate(-206,-150) scale(1,1)"><path fill="#C0C0C0" stroke="none" d="M 495 370.5 C 495 355.312168 532.1603616 343 578 343 C 623.8396384 343 661 355.312168 661 370.5 C 661 385.687832 623.8396384 398 578 398 C 532.1603616 398 495 385.687832 495 370.5 Z" opacity="0.2"/></g><g transform="translate(-206,-150) scale(1,1)"><path fill="#ffffff" stroke="none" d="M 488 363.5 C 488 348.312168 525.1603616 336 571 336 C 616.8396384 336 654 348.312168 654 363.5 C 654 378.687832 616.8396384 391 571 391 C 525.1603616 391 488 378.687832 488 363.5 Z"/></g><g transform="translate(-206,-150) scale(1,1)"><path fill="none" stroke="#000000" d="M 488 363.5 C 488 348.312168 525.1603616 336 571 336 C 616.8396384 336 654 348.312168 654 363.5 C 654 378.687832 616.8396384 391 571 391 C 525.1603616 391 488 378.687832 488 363.5 Z" stroke-miterlimit="10"/></g><g transform="translate(-206,-150) scale(1,1)"><g><path fill="none" stroke="none"/><text fill="#000000" stroke="none" font-family="Arial" font-size="13px" font-style="normal" font-weight="bold" text-decoration="none" x="538.845947265625" y="363">manter loja</text></g></g><g transform="translate(-206,-150) scale(1,1)"><g><path fill="none" stroke="none"/><text fill="#000000" stroke="none" font-family="Arial" font-size="13px" font-style="normal" font-weight="normal" text-decoration="none" x="516.813232421875" y="378">(from caso de uso)</text></g></g><g transform="translate(-206,-150) scale(1,1)"><path fill="#ffffff" stroke="none" d="M 249.02116672585228 169.68 C 249.02116672585228 164.886167936 252.9070090507977 161 257.700439453125 161 C 262.49386985545226 161 266.37971218039775 164.886167936 266.37971218039775 169.68 C 266.37971218039775 174.47383206400002 262.49386985545226 178.36 257.700439453125 178.36 C 252.9070090507977 178.36 249.02116672585228 174.47383206400002 249.02116672585228 169.68 Z"/></g><g transform="translate(-206,-150) scale(1,1)"><path fill="none" stroke="#000000" d="M 249.02116672585228 169.68 C 249.02116672585228 164.886167936 252.9070090507977 161 257.700439453125 161 C 262.49386985545226 161 266.37971218039775 164.886167936 266.37971218039775 169.68 C 266.37971218039775 174.47383206400002 262.49386985545226 178.36 257.700439453125 178.36 C 252.9070090507977 178.36 249.02116672585228 174.47383206400002 249.02116672585228 169.68 Z" stroke-miterlimit="10"/></g><g transform="translate(-206,-150) scale(1,1)"><path fill="none" stroke="#000000" d="M 257.700439453125 178.36 L 257.700439453125 195.64" stroke-miterlimit="10"/></g><g transform="translate(-206,-150) scale(1,1)"><path fill="none" stroke="#000000" d="M 248.51062127130683 184.84 L 266.89025763494317 184.84" stroke-miterlimit="10"/></g><g transform="translate(-206,-150) scale(1,1)"><path fill="none" stroke="#000000" d="M 257.700439453125 195.64 L 244.93680308948865 213" stroke-miterlimit="10"/></g><g transform="translate(-206,-150) scale(1,1)"><path fill="none" stroke="#000000" d="M 257.700439453125 195.64 L 270.46407581676135 213" stroke-miterlimit="10"/></g><g transform="translate(-206,-150) scale(1,1)"><g><path fill="none" stroke="none"/><text fill="#000000" stroke="none" font-family="Arial" font-size="13px" font-style="normal" font-weight="bold" text-decoration="none" x="226.6318359375" y="233.5">comprador</text></g></g><g transform="translate(-206,-150) scale(1,1)"><g><path fill="none" stroke="none"/><text fill="#000000" stroke="none" font-family="Arial" font-size="13px" font-style="normal" font-weight="normal" text-decoration="none" x="220.5" y="248.5">(from atores)</text></g></g><g transform="translate(-206,-150) scale(1,1)"><path fill="none" stroke="#000000" d="M 300 207 L 645 204" stroke-miterlimit="10"/></g><g transform="translate(-206,-150) scale(1,1)"><path fill="none" stroke="#000000" d="M 634.8743124610911 208.29772635987734 L 645 204 L 634.8011062243079 199.87900912981485" stroke-miterlimit="10"/></g><g transform="translate(-206,-150) scale(1,1)"><path fill="#C0C0C0" stroke="none" d="M 653 210.5 C 653 195.31216799999999 690.1603616 183 736 183 C 781.8396384 183 819 195.31216799999999 819 210.5 C 819 225.68783200000001 781.8396384 238 736 238 C 690.1603616 238 653 225.68783200000001 653 210.5 Z" opacity="0.2"/></g><g transform="translate(-206,-150) scale(1,1)"><path fill="#ffffff" stroke="none" d="M 646 203.5 C 646 188.31216799999999 683.1603616 176 729 176 C 774.8396384 176 812 188.31216799999999 812 203.5 C 812 218.68783200000001 774.8396384 231 729 231 C 683.1603616 231 646 218.68783200000001 646 203.5 Z"/></g><g transform="translate(-206,-150) scale(1,1)"><path fill="none" stroke="#000000" d="M 646 203.5 C 646 188.31216799999999 683.1603616 176 729 176 C 774.8396384 176 812 188.31216799999999 812 203.5 C 812 218.68783200000001 774.8396384 231 729 231 C 683.1603616 231 646 218.68783200000001 646 203.5 Z" stroke-miterlimit="10"/></g><g transform="translate(-206,-150) scale(1,1)"><g><path fill="none" stroke="none"/><text fill="#000000" stroke="none" font-family="Arial" font-size="13px" font-style="normal" font-weight="bold" text-decoration="none" x="700.102294921875" y="203">listar lojas</text></g></g><g transform="translate(-206,-150) scale(1,1)"><g><path fill="none" stroke="none"/><text fill="#000000" stroke="none" font-family="Arial" font-size="13px" font-style="normal" font-weight="normal" text-decoration="none" x="674.813232421875" y="218">(from caso de uso)</text></g></g><g transform="translate(-206,-150) scale(1,1)"><path fill="#ffffff" stroke="none" d="M 249.02116672585228 329.68 C 249.02116672585228 324.886167936 252.9070090507977 321 257.700439453125 321 C 262.49386985545226 321 266.37971218039775 324.886167936 266.37971218039775 329.68 C 266.37971218039775 334.473832064 262.49386985545226 338.36 257.700439453125 338.36 C 252.9070090507977 338.36 249.02116672585228 334.473832064 249.02116672585228 329.68 Z"/></g><g transform="translate(-206,-150) scale(1,1)"><path fill="none" stroke="#000000" d="M 249.02116672585228 329.68 C 249.02116672585228 324.886167936 252.9070090507977 321 257.700439453125 321 C 262.49386985545226 321 266.37971218039775 324.886167936 266.37971218039775 329.68 C 266.37971218039775 334.473832064 262.49386985545226 338.36 257.700439453125 338.36 C 252.9070090507977 338.36 249.02116672585228 334.473832064 249.02116672585228 329.68 Z" stroke-miterlimit="10"/></g><g transform="translate(-206,-150) scale(1,1)"><path fill="none" stroke="#000000" d="M 257.700439453125 338.36 L 257.700439453125 355.64" stroke-miterlimit="10"/></g><g transform="translate(-206,-150) scale(1,1)"><path fill="none" stroke="#000000" d="M 248.51062127130683 344.84 L 266.89025763494317 344.84" stroke-miterlimit="10"/></g><g transform="translate(-206,-150) scale(1,1)"><path fill="none" stroke="#000000" d="M 257.700439453125 355.64 L 244.93680308948865 373" stroke-miterlimit="10"/></g><g transform="translate(-206,-150) scale(1,1)"><path fill="none" stroke="#000000" d="M 257.700439453125 355.64 L 270.46407581676135 373" stroke-miterlimit="10"/></g><g transform="translate(-206,-150) scale(1,1)"><g><path fill="none" stroke="none"/><text fill="#000000" stroke="none" font-family="Arial" font-size="13px" font-style="normal" font-weight="bold" text-decoration="none" x="241.082275390625" y="393.5">lojista</text></g></g><g transform="translate(-206,-150) scale(1,1)"><g><path fill="none" stroke="none"/><text fill="#000000" stroke="none" font-family="Arial" font-size="13px" font-style="normal" font-weight="normal" text-decoration="none" x="220.5" y="408.5">(from atores)</text></g></g><g transform="translate(-206,-150) scale(1,1)"><path fill="none" stroke="#000000" d="M 300 366 L 487 364" stroke-miterlimit="10"/></g><g transform="translate(-206,-150) scale(1,1)"><path fill="none" stroke="#000000" d="M 476.882925337162 368.31796251333446 L 487 364 L 476.7928873260486 359.8994084742248" stroke-miterlimit="10"/></g><g transform="translate(-206,-150) scale(1,1)"><path fill="none" stroke="#000000" d="M 700 232 L 599 335" stroke-miterlimit="10" stroke-dasharray="3"/></g><g transform="translate(-206,-150) scale(1,1)"><path fill="none" stroke="#000000" d="M 603.1096861884268 324.79654571075787 L 599 335 L 609.1209186918354 330.6910552529352" stroke-miterlimit="10"/></g><g transform="translate(-206,-150) scale(1,1)"><g><path fill="none" stroke="none"/><text fill="#000000" stroke="none" font-family="Arial" font-size="13px" font-style="normal" font-weight="normal" text-decoration="none" x="643.5" y="309.5">«extend»</text></g></g></g></svg>