<svg version="1.1" xmlns="http://www.w3.org/2000/svg" xmlns:xlink="http://www.w3.org/1999/xlink" width="349.57080078125" height="345"><defs/><g><text fill="#eeeeee" stroke="none" font-family="Arial" font-size="24px" font-style="normal" font-weight="normal" text-decoration="none" x="0" y="0">UNREGISTERED</text><text fill="#eeeeee" stroke="none" font-family="Arial" font-size="24px" font-style="normal" font-weight="normal" text-decoration="none" x="0" y="30">UNREGISTERED</text><text fill="#eeeeee" stroke="none" font-family="Arial" font-size="24px" font-style="normal" font-weight="normal" text-decoration="none" x="0" y="60">UNREGISTERED</text><text fill="#eeeeee" stroke="none" font-family="Arial" font-size="24px" font-style="normal" font-weight="normal" text-decoration="none" x="0" y="90">UNREGISTERED</text><text fill="#eeeeee" stroke="none" font-family="Arial" font-size="24px" font-style="normal" font-weight="normal" text-decoration="none" x="0" y="120">UNREGISTERED</text><text fill="#eeeeee" stroke="none" font-family="Arial" font-size="24px" font-style="normal" font-weight="normal" text-decoration="none" x="0" y="150">UNREGISTERED</text><text fill="#eeeeee" stroke="none" font-family="Arial" font-size="24px" font-style="normal" font-weight="normal" text-decoration="none" x="0" y="180">UNREGISTERED</text><text fill="#eeeeee" stroke="none" font-family="Arial" font-size="24px" font-style="normal" font-weight="normal" text-decoration="none" x="0" y="210">UNREGISTERED</text><text fill="#eeeeee" stroke="none" font-family="Arial" font-size="24px" font-style="normal" font-weight="normal" text-decoration="none" x="0" y="240">UNREGISTERED</text><text fill="#eeeeee" stroke="none" font-family="Arial" font-size="24px" font-style="normal" font-weight="normal" text-decoration="none" x="0" y="270">UNREGISTERED</text><text fill="#eeeeee" stroke="none" font-family="Arial" font-size="24px" font-style="normal" font-weight="normal" text-decoration="none" x="0" y="300">UNREGISTERED</text><text fill="#eeeeee" stroke="none" font-family="Arial" font-size="24px" font-style="normal" font-weight="normal" text-decoration="none" x="0" y="330">UNREGISTERED</text><text fill="#eeeeee" stroke="none" font-family="Arial" font-size="24px" font-style="normal" font-weight="normal" text-decoration="none" x="200" y="0">UNREGISTERED</text><text fill="#eeeeee" stroke="none" font-family="Arial" font-size="24px" font-style="normal" font-weight="normal" text-decoration="none" x="200" y="30">UNREGISTERED</text><text fill="#eeeeee" stroke="none" font-family="Arial" font-size="24px" font-style="normal" font-weight="normal" text-decoration="none" x="200" y="60">UNREGISTERED</text><text fill="#eeeeee" stroke="none" font-family="Arial" font-size="24px" font-style="normal" font-weight="normal" text-decoration="none" x="200" y="90">UNREGISTERED</text><text fill="#eeeeee" stroke="none" font-family="Arial" font-size="24px" font-style="normal" font-weight="normal" text-decoration="none" x="200" y="120">UNREGISTERED</text><text fill="#eeeeee" stroke="none" font-family="Arial" font-size="24px" font-style="normal" font-weight="normal" text-decoration="none" x="200" y="150">UNREGISTERED</text><text fill="#eeeeee" stroke="none" font-family="Arial" font-size="24px" font-style="normal" font-weight="normal" text-decoration="none" x="200" y="180">UNREGISTERED</text><text fill="#eeeeee" stroke="none" font-family="Arial" font-size="24px" font-style="normal" font-weight="normal" text-decoration="none" x="200" y="210">UNREGISTERED</text><text fill="#eeeeee" stroke="none" font-family="Arial" font-size="24px" font-style="normal" font-weight="normal" text-decoration="none" x="200" y="240">UNREGISTERED</text><text fill="#eeeeee" stroke="none" font-family="Arial" font-size="24px" font-style="normal" font-weight="normal" text-decoration="none" x="200" y="270">UNREGISTERED</text><text fill="#eeeeee" stroke="none" font-family="Arial" font-size="24px" font-style="normal" font-weight="normal" text-decoration="none" x="200" y="300">UNREGISTERED</text><text fill="#eeeeee" stroke="none" font-family="Arial" font-size="24px" font-style="normal" font-weight="normal" text-decoration="none" x="200" y="330">UNREGISTERED</text><g transform="translate(-262,-166) scale(1,1)"><rect fill="#C0C0C0" stroke="none" x="511" y="191" width="89.57080078125" height="117" opacity="0.2"/></g><g transform="translate(-262,-166) scale(1,1)"><rect fill="#ffffff" stroke="none" x="504" y="184" width="89.57080078125" height="117"/></g><g transform="translate(-262,-166) scale(1,1)"><path fill="none" stroke="#000000" d="M 504 184 L 593.57080078125 184 L 593.57080078125 301 L 504 301 L 504 184 Z Z" stroke-miterlimit="10"/></g><g transform="translate(-262,-166) scale(1,1)"><path fill="none" stroke="#000000" d="M 504 209 L 593.57080078125 209" stroke-miterlimit="10"/></g><g transform="translate(-262,-166) scale(1,1)"><path fill="none" stroke="#000000" d="M 504 219 L 593.57080078125 219" stroke-miterlimit="10"/></g><g transform="translate(-262,-166) scale(1,1)"><g><path fill="none" stroke="none"/><text fill="#000000" stroke="none" font-family="Arial" font-size="13px" font-style="normal" font-weight="bold" text-decoration="none" x="521.325439453125" y="203.5">CProduto</text></g></g><g transform="translate(-262,-166) scale(1,1)"><g><path fill="none" stroke="none"/><text fill="#000000" stroke="none" font-family="Arial" font-size="13px" font-style="normal" font-weight="normal" text-decoration="none" x="509" y="236.5">+criar()</text></g></g><g transform="translate(-262,-166) scale(1,1)"><g><path fill="none" stroke="none"/><text fill="#000000" stroke="none" font-family="Arial" font-size="13px" font-style="normal" font-weight="normal" text-decoration="none" x="509" y="251.5">+consultar()</text></g></g><g transform="translate(-262,-166) scale(1,1)"><g><path fill="none" stroke="none"/><text fill="#000000" stroke="none" font-family="Arial" font-size="13px" font-style="normal" font-weight="normal" text-decoration="none" x="509" y="266.5">+listar()</text></g></g><g transform="translate(-262,-166) scale(1,1)"><g><path fill="none" stroke="none"/><text fill="#000000" stroke="none" font-family="Arial" font-size="13px" font-style="normal" font-weight="normal" text-decoration="none" x="509" y="281.5">+alterar()</text></g></g><g transform="translate(-262,-166) scale(1,1)"><g><path fill="none" stroke="none"/><text fill="#000000" stroke="none" font-family="Arial" font-size="13px" font-style="normal" font-weight="normal" text-decoration="none" x="509" y="296.5">+excluir()</text></g></g><g transform="translate(-262,-166) scale(1,1)"><rect fill="#C0C0C0" stroke="none" x="519" y="391" width="89.57080078125" height="117" opacity="0.2"/></g><g transform="translate(-262,-166) scale(1,1)"><rect fill="#ffffff" stroke="none" x="512" y="384" width="89.57080078125" height="117"/></g><g transform="translate(-262,-166) scale(1,1)"><path fill="none" stroke="#000000" d="M 512 384 L 601.57080078125 384 L 601.57080078125 501 L 512 501 L 512 384 Z Z" stroke-miterlimit="10"/></g><g transform="translate(-262,-166) scale(1,1)"><path fill="none" stroke="#000000" d="M 512 409 L 601.57080078125 409" stroke-miterlimit="10"/></g><g transform="translate(-262,-166) scale(1,1)"><path fill="none" stroke="#000000" d="M 512 419 L 601.57080078125 419" stroke-miterlimit="10"/></g><g transform="translate(-262,-166) scale(1,1)"><g><path fill="none" stroke="none"/><text fill="#000000" stroke="none" font-family="Arial" font-size="13px" font-style="normal" font-weight="bold" text-decoration="none" x="528.60498046875" y="403.5">MProduto</text></g></g><g transform="translate(-262,-166) scale(1,1)"><g><path fill="none" stroke="none"/><text fill="#000000" stroke="none" font-family="Arial" font-size="13px" font-style="normal" font-weight="normal" text-decoration="none" x="517" y="436.5">+criar()</text></g></g><g transform="translate(-262,-166) scale(1,1)"><g><path fill="none" stroke="none"/><text fill="#000000" stroke="none" font-family="Arial" font-size="13px" font-style="normal" font-weight="normal" text-decoration="none" x="517" y="451.5">+consutar()</text></g></g><g transform="translate(-262,-166) scale(1,1)"><g><path fill="none" stroke="none"/><text fill="#000000" stroke="none" font-family="Arial" font-size="13px" font-style="normal" font-weight="normal" text-decoration="none" x="517" y="466.5">+listar()</text></g></g><g transform="translate(-262,-166) scale(1,1)"><g><path fill="none" stroke="none"/><text fill="#000000" stroke="none" font-family="Arial" font-size="13px" font-style="normal" font-weight="normal" text-decoration="none" x="517" y="481.5">+alterar()</text></g></g><g transform="translate(-262,-166) scale(1,1)"><g><path fill="none" stroke="none"/><text fill="#000000" stroke="none" font-family="Arial" font-size="13px" font-style="normal" font-weight="normal" text-decoration="none" x="517" y="496.5">+excluir()</text></g></g><g transform="translate(-262,-166) scale(1,1)"><rect fill="#C0C0C0" stroke="none" x="303" y="183" width="89.57080078125" height="117" opacity="0.2"/></g><g transform="translate(-262,-166) scale(1,1)"><rect fill="#ffffff" stroke="none" x="296" y="176" width="89.57080078125" height="117"/></g><g transform="translate(-262,-166) scale(1,1)"><path fill="none" stroke="#000000" d="M 296 176 L 385.57080078125 176 L 385.57080078125 293 L 296 293 L 296 176 Z Z" stroke-miterlimit="10"/></g><g transform="translate(-262,-166) scale(1,1)"><path fill="none" stroke="#000000" d="M 296 201 L 385.57080078125 201" stroke-miterlimit="10"/></g><g transform="translate(-262,-166) scale(1,1)"><path fill="none" stroke="#000000" d="M 296 211 L 385.57080078125 211" stroke-miterlimit="10"/></g><g transform="translate(-262,-166) scale(1,1)"><g><path fill="none" stroke="none"/><text fill="#000000" stroke="none" font-family="Arial" font-size="13px" font-style="normal" font-weight="bold" text-decoration="none" x="313.68408203125" y="195.5">VProduto</text></g></g><g transform="translate(-262,-166) scale(1,1)"><g><path fill="none" stroke="none"/><text fill="#000000" stroke="none" font-family="Arial" font-size="13px" font-style="normal" font-weight="normal" text-decoration="none" x="301" y="228.5">+criar()</text></g></g><g transform="translate(-262,-166) scale(1,1)"><g><path fill="none" stroke="none"/><text fill="#000000" stroke="none" font-family="Arial" font-size="13px" font-style="normal" font-weight="normal" text-decoration="none" x="301" y="243.5">+consutar()</text></g></g><g transform="translate(-262,-166) scale(1,1)"><g><path fill="none" stroke="none"/><text fill="#000000" stroke="none" font-family="Arial" font-size="13px" font-style="normal" font-weight="normal" text-decoration="none" x="301" y="258.5">+listar()</text></g></g><g transform="translate(-262,-166) scale(1,1)"><g><path fill="none" stroke="none"/><text fill="#000000" stroke="none" font-family="Arial" font-size="13px" font-style="normal" font-weight="normal" text-decoration="none" x="301" y="273.5">+alterar()</text></g></g><g transform="translate(-262,-166) scale(1,1)"><g><path fill="none" stroke="none"/><text fill="#000000" stroke="none" font-family="Arial" font-size="13px" font-style="normal" font-weight="normal" text-decoration="none" x="301" y="288.5">+excluir()</text></g></g><g transform="translate(-262,-166) scale(1,1)"><rect fill="#C0C0C0" stroke="none" x="279" y="383" width="145.95703125" height="102" opacity="0.2"/></g><g transform="translate(-262,-166) scale(1,1)"><rect fill="#ffffff" stroke="none" x="272" y="376" width="145.95703125" height="102"/></g><g transform="translate(-262,-166) scale(1,1)"><path fill="none" stroke="#000000" d="M 272 376 L 417.95703125 376 L 417.95703125 478 L 272 478 L 272 376 Z Z" stroke-miterlimit="10"/></g><g transform="translate(-262,-166) scale(1,1)"><path fill="none" stroke="#000000" d="M 272 401 L 417.95703125 401" stroke-miterlimit="10"/></g><g transform="translate(-262,-166) scale(1,1)"><path fill="none" stroke="#000000" d="M 272 454 L 417.95703125 454" stroke-miterlimit="10"/></g><g transform="translate(-262,-166) scale(1,1)"><g><path fill="none" stroke="none"/><text fill="#000000" stroke="none" font-family="Arial" font-size="13px" font-style="normal" font-weight="bold" text-decoration="none" x="317.877197265625" y="395.5">EProduto</text></g></g><g transform="translate(-262,-166) scale(1,1)"><g><path fill="none" stroke="none"/><text fill="#000000" stroke="none" font-family="Arial" font-size="13px" font-style="normal" font-weight="normal" text-decoration="none" x="277" y="418.5">+nomeProduto: String</text></g></g><g transform="translate(-262,-166) scale(1,1)"><g><path fill="none" stroke="none"/><text fill="#000000" stroke="none" font-family="Arial" font-size="13px" font-style="normal" font-weight="normal" text-decoration="none" x="277" y="433.5">+preço: BigDecimal</text></g></g><g transform="translate(-262,-166) scale(1,1)"><g><path fill="none" stroke="none"/><text fill="#000000" stroke="none" font-family="Arial" font-size="13px" font-style="normal" font-weight="normal" text-decoration="none" x="277" y="448.5">+descrição: String</text></g></g><g transform="translate(-262,-166) scale(1,1)"><path fill="none" stroke="#000000" d="M 503 240 L 387 236" stroke-miterlimit="10" stroke-dasharray="3"/></g><g transform="translate(-262,-166) scale(1,1)"><path fill="none" stroke="#000000" d="M 397.30170778424974 232.1432116044656 L 387 236 L 397.01156866012917 240.55724620396126" stroke-miterlimit="10"/></g><g transform="translate(-262,-166) scale(1,1)"><path fill="none" stroke="#000000" d="M 554 383 L 550 302" stroke-miterlimit="10" stroke-dasharray="3"/></g><g transform="translate(-262,-166) scale(1,1)"><path fill="none" stroke="#000000" d="M 554.7056440210096 311.94268144654836 L 550 302 L 546.2968553230737 312.3579302711378" stroke-miterlimit="10"/></g><g transform="translate(-262,-166) scale(1,1)"><path fill="none" stroke="#000000" d="M 343 375 L 341 294" stroke-miterlimit="10" stroke-dasharray="3"/></g><g transform="translate(-262,-166) scale(1,1)"><path fill="none" stroke="#000000" d="M 345.45908893539735 304.05567132847017 L 341 294 L 337.042618638389 304.2634854098778" stroke-miterlimit="10"/></g><g transform="translate(-262,-166) scale(1,1)"><path fill="none" stroke="#000000" d="M 419 432 L 511 439" stroke-miterlimit="10" stroke-dasharray="3"/></g><g transform="translate(-262,-166) scale(1,1)"><path fill="none" stroke="#000000" d="M 500.54724874772495 442.42636706411656 L 511 439 L 501.18598132158905 434.03159609333125" stroke-miterlimit="10"/></g><g transform="translate(-262,-166) scale(1,1)"><path fill="none" stroke="#000000" d="M 401 375 L 503 283" stroke-miterlimit="10" stroke-dasharray="3"/></g><g transform="translate(-262,-166) scale(1,1)"><path fill="none" stroke="#000000" d="M 498.27290887116453 292.9325026785642 L 503 283 L 492.6341018093474 286.68078180567994" stroke-miterlimit="10"/></g></g></svg>