<svg version="1.1" xmlns="http://www.w3.org/2000/svg" xmlns:xlink="http://www.w3.org/1999/xlink" width="519.31982421875" height="404"><defs/><g><text fill="#eeeeee" stroke="none" font-family="Arial" font-size="24px" font-style="normal" font-weight="normal" text-decoration="none" x="0" y="0">UNREGISTERED</text><text fill="#eeeeee" stroke="none" font-family="Arial" font-size="24px" font-style="normal" font-weight="normal" text-decoration="none" x="0" y="30">UNREGISTERED</text><text fill="#eeeeee" stroke="none" font-family="Arial" font-size="24px" font-style="normal" font-weight="normal" text-decoration="none" x="0" y="60">UNREGISTERED</text><text fill="#eeeeee" stroke="none" font-family="Arial" font-size="24px" font-style="normal" font-weight="normal" text-decoration="none" x="0" y="90">UNREGISTERED</text><text fill="#eeeeee" stroke="none" font-family="Arial" font-size="24px" font-style="normal" font-weight="normal" text-decoration="none" x="0" y="120">UNREGISTERED</text><text fill="#eeeeee" stroke="none" font-family="Arial" font-size="24px" font-style="normal" font-weight="normal" text-decoration="none" x="0" y="150">UNREGISTERED</text><text fill="#eeeeee" stroke="none" font-family="Arial" font-size="24px" font-style="normal" font-weight="normal" text-decoration="none" x="0" y="180">UNREGISTERED</text><text fill="#eeeeee" stroke="none" font-family="Arial" font-size="24px" font-style="normal" font-weight="normal" text-decoration="none" x="0" y="210">UNREGISTERED</text><text fill="#eeeeee" stroke="none" font-family="Arial" font-size="24px" font-style="normal" font-weight="normal" text-decoration="none" x="0" y="240">UNREGISTERED</text><text fill="#eeeeee" stroke="none" font-family="Arial" font-size="24px" font-style="normal" font-weight="normal" text-decoration="none" x="0" y="270">UNREGISTERED</text><text fill="#eeeeee" stroke="none" font-family="Arial" font-size="24px" font-style="normal" font-weight="normal" text-decoration="none" x="0" y="300">UNREGISTERED</text><text fill="#eeeeee" stroke="none" font-family="Arial" font-size="24px" font-style="normal" font-weight="normal" text-decoration="none" x="0" y="330">UNREGISTERED</text><text fill="#eeeeee" stroke="none" font-family="Arial" font-size="24px" font-style="normal" font-weight="normal" text-decoration="none" x="0" y="360">UNREGISTERED</text><text fill="#eeeeee" stroke="none" font-family="Arial" font-size="24px" font-style="normal" font-weight="normal" text-decoration="none" x="0" y="390">UNREGISTERED</text><text fill="#eeeeee" stroke="none" font-family="Arial" font-size="24px" font-style="normal" font-weight="normal" text-decoration="none" x="200" y="0">UNREGISTERED</text><text fill="#eeeeee" stroke="none" font-family="Arial" font-size="24px" font-style="normal" font-weight="normal" text-decoration="none" x="200" y="30">UNREGISTERED</text><text fill="#eeeeee" stroke="none" font-family="Arial" font-size="24px" font-style="normal" font-weight="normal" text-decoration="none" x="200" y="60">UNREGISTERED</text><text fill="#eeeeee" stroke="none" font-family="Arial" font-size="24px" font-style="normal" font-weight="normal" text-decoration="none" x="200" y="90">UNREGISTERED</text><text fill="#eeeeee" stroke="none" font-family="Arial" font-size="24px" font-style="normal" font-weight="normal" text-decoration="none" x="200" y="120">UNREGISTERED</text><text fill="#eeeeee" stroke="none" font-family="Arial" font-size="24px" font-style="normal" font-weight="normal" text-decoration="none" x="200" y="150">UNREGISTERED</text><text fill="#eeeeee" stroke="none" font-family="Arial" font-size="24px" font-style="normal" font-weight="normal" text-decoration="none" x="200" y="180">UNREGISTERED</text><text fill="#eeeeee" stroke="none" font-family="Arial" font-size="24px" font-style="normal" font-weight="normal" text-decoration="none" x="200" y="210">UNREGISTERED</text><text fill="#eeeeee" stroke="none" font-family="Arial" font-size="24px" font-style="normal" font-weight="normal" text-decoration="none" x="200" y="240">UNREGISTERED</text><text fill="#eeeeee" stroke="none" font-family="Arial" font-size="24px" font-style="normal" font-weight="normal" text-decoration="none" x="200" y="270">UNREGISTERED</text><text fill="#eeeeee" stroke="none" font-family="Arial" font-size="24px" font-style="normal" font-weight="normal" text-decoration="none" x="200" y="300">UNREGISTERED</text><text fill="#eeeeee" stroke="none" font-family="Arial" font-size="24px" font-style="normal" font-weight="normal" text-decoration="none" x="200" y="330">UNREGISTERED</text><text fill="#eeeeee" stroke="none" font-family="Arial" font-size="24px" font-style="normal" font-weight="normal" text-decoration="none" x="200" y="360">UNREGISTERED</text><text fill="#eeeeee" stroke="none" font-family="Arial" font-size="24px" font-style="normal" font-weight="normal" text-decoration="none" x="200" y="390">UNREGISTERED</text><text fill="#eeeeee" stroke="none" font-family="Arial" font-size="24px" font-style="normal" font-weight="normal" text-decoration="none" x="400" y="0">UNREGISTERED</text><text fill="#eeeeee" stroke="none" font-family="Arial" font-size="24px" font-style="normal" font-weight="normal" text-decoration="none" x="400" y="30">UNREGISTERED</text><text fill="#eeeeee" stroke="none" font-family="Arial" font-size="24px" font-style="normal" font-weight="normal" text-decoration="none" x="400" y="60">UNREGISTERED</text><text fill="#eeeeee" stroke="none" font-family="Arial" font-size="24px" font-style="normal" font-weight="normal" text-decoration="none" x="400" y="90">UNREGISTERED</text><text fill="#eeeeee" stroke="none" font-family="Arial" font-size="24px" font-style="normal" font-weight="normal" text-decoration="none" x="400" y="120">UNREGISTERED</text><text fill="#eeeeee" stroke="none" font-family="Arial" font-size="24px" font-style="normal" font-weight="normal" text-decoration="none" x="400" y="150">UNREGISTERED</text><text fill="#eeeeee" stroke="none" font-family="Arial" font-size="24px" font-style="normal" font-weight="normal" text-decoration="none" x="400" y="180">UNREGISTERED</text><text fill="#eeeeee" stroke="none" font-family="Arial" font-size="24px" font-style="normal" font-weight="normal" text-decoration="none" x="400" y="210">UNREGISTERED</text><text fill="#eeeeee" stroke="none" font-family="Arial" font-size="24px" font-style="normal" font-weight="normal" text-decoration="none" x="400" y="240">UNREGISTERED</text><text fill="#eeeeee" stroke="none" font-family="Arial" font-size="24px" font-style="normal" font-weight="normal" text-decoration="none" x="400" y="270">UNREGISTERED</text><text fill="#eeeeee" stroke="none" font-family="Arial" font-size="24px" font-style="normal" font-weight="normal" text-decoration="none" x="400" y="300">UNREGISTERED</text><text fill="#eeeeee" stroke="none" font-family="Arial" font-size="24px" font-style="normal" font-weight="normal" text-decoration="none" x="400" y="330">UNREGISTERED</text><text fill="#eeeeee" stroke="none" font-family="Arial" font-size="24px" font-style="normal" font-weight="normal" text-decoration="none" x="400" y="360">UNREGISTERED</text><text fill="#eeeeee" stroke="none" font-family="Arial" font-size="24px" font-style="normal" font-weight="normal" text-decoration="none" x="400" y="390">UNREGISTERED</text><g transform="translate(-14,-102) scale(1,1)"><rect fill="#C0C0C0" stroke="none" x="263" y="119" width="145.95703125" height="145" opacity="0.2"/></g><g transform="translate(-14,-102) scale(1,1)"><rect fill="#ffffff" stroke="none" x="256" y="112" width="145.95703125" height="145"/></g><g transform="translate(-14,-102) scale(1,1)"><path fill="none" stroke="#000000" d="M 256 112 L 401.95703125 112 L 401.95703125 257 L 256 257 L 256 112 Z Z" stroke-miterlimit="10"/></g><g transform="translate(-14,-102) scale(1,1)"><path fill="none" stroke="#000000" d="M 256 137 L 401.95703125 137" stroke-miterlimit="10"/></g><g transform="translate(-14,-102) scale(1,1)"><path fill="none" stroke="#000000" d="M 256 205 L 401.95703125 205" stroke-miterlimit="10"/></g><g transform="translate(-14,-102) scale(1,1)"><g><path fill="none" stroke="none"/><text fill="#000000" stroke="none" font-family="Arial" font-size="13px" font-style="normal" font-weight="bold" text-decoration="none" x="316.689453125" y="131.5">Loja</text></g></g><g transform="translate(-14,-102) scale(1,1)"><g><path fill="none" stroke="none"/><text fill="#000000" stroke="none" font-family="Arial" font-size="13px" font-style="normal" font-weight="normal" text-decoration="none" x="261" y="154.5">+nomeVendedor: String</text></g></g><g transform="translate(-14,-102) scale(1,1)"><g><path fill="none" stroke="none"/><text fill="#000000" stroke="none" font-family="Arial" font-size="13px" font-style="normal" font-weight="normal" text-decoration="none" x="261" y="169.5">+nomeLoja: String</text></g></g><g transform="translate(-14,-102) scale(1,1)"><g><path fill="none" stroke="none"/><text fill="#000000" stroke="none" font-family="Arial" font-size="13px" font-style="normal" font-weight="normal" text-decoration="none" x="261" y="184.5">+email: String</text></g></g><g transform="translate(-14,-102) scale(1,1)"><g><path fill="none" stroke="none"/><text fill="#000000" stroke="none" font-family="Arial" font-size="13px" font-style="normal" font-weight="normal" text-decoration="none" x="261" y="199.5">+senha: String</text></g></g><g transform="translate(-14,-102) scale(1,1)"><g><path fill="none" stroke="none"/><text fill="#000000" stroke="none" font-family="Arial" font-size="13px" font-style="normal" font-weight="normal" text-decoration="none" x="261" y="222.5">+incluir()</text></g></g><g transform="translate(-14,-102) scale(1,1)"><g><path fill="none" stroke="none"/><text fill="#000000" stroke="none" font-family="Arial" font-size="13px" font-style="normal" font-weight="normal" text-decoration="none" x="261" y="237.5">+listar()</text></g></g><g transform="translate(-14,-102) scale(1,1)"><g><path fill="none" stroke="none"/><text fill="#000000" stroke="none" font-family="Arial" font-size="13px" font-style="normal" font-weight="normal" text-decoration="none" x="261" y="252.5">+consultar()</text></g></g><g transform="translate(-14,-102) scale(1,1)"><rect fill="#C0C0C0" stroke="none" x="135" y="327" width="135.826171875" height="160" opacity="0.2"/></g><g transform="translate(-14,-102) scale(1,1)"><rect fill="#ffffff" stroke="none" x="128" y="320" width="135.826171875" height="160"/></g><g transform="translate(-14,-102) scale(1,1)"><path fill="none" stroke="#000000" d="M 128 320 L 263.826171875 320 L 263.826171875 480 L 128 480 L 128 320 Z Z" stroke-miterlimit="10"/></g><g transform="translate(-14,-102) scale(1,1)"><path fill="none" stroke="#000000" d="M 128 345 L 263.826171875 345" stroke-miterlimit="10"/></g><g transform="translate(-14,-102) scale(1,1)"><path fill="none" stroke="#000000" d="M 128 398 L 263.826171875 398" stroke-miterlimit="10"/></g><g transform="translate(-14,-102) scale(1,1)"><g><path fill="none" stroke="none"/><text fill="#000000" stroke="none" font-family="Arial" font-size="13px" font-style="normal" font-weight="bold" text-decoration="none" x="173.147216796875" y="339.5">Produto</text></g></g><g transform="translate(-14,-102) scale(1,1)"><g><path fill="none" stroke="none"/><text fill="#000000" stroke="none" font-family="Arial" font-size="13px" font-style="normal" font-weight="normal" text-decoration="none" x="133" y="362.5">+nomeProduto: String</text></g></g><g transform="translate(-14,-102) scale(1,1)"><g><path fill="none" stroke="none"/><text fill="#000000" stroke="none" font-family="Arial" font-size="13px" font-style="normal" font-weight="normal" text-decoration="none" x="133" y="377.5">+preço: BigDecimal</text></g></g><g transform="translate(-14,-102) scale(1,1)"><g><path fill="none" stroke="none"/><text fill="#000000" stroke="none" font-family="Arial" font-size="13px" font-style="normal" font-weight="normal" text-decoration="none" x="133" y="392.5">+descrição: String</text></g></g><g transform="translate(-14,-102) scale(1,1)"><g><path fill="none" stroke="none"/><text fill="#000000" stroke="none" font-family="Arial" font-size="13px" font-style="normal" font-weight="normal" text-decoration="none" x="133" y="415.5">+incluir()</text></g></g><g transform="translate(-14,-102) scale(1,1)"><g><path fill="none" stroke="none"/><text fill="#000000" stroke="none" font-family="Arial" font-size="13px" font-style="normal" font-weight="normal" text-decoration="none" x="133" y="430.5">+alterar()</text></g></g><g transform="translate(-14,-102) scale(1,1)"><g><path fill="none" stroke="none"/><text fill="#000000" stroke="none" font-family="Arial" font-size="13px" font-style="normal" font-weight="normal" text-decoration="none" x="133" y="445.5">+excluir()</text></g></g><g transform="translate(-14,-102) scale(1,1)"><g><path fill="none" stroke="none"/><text fill="#000000" stroke="none" font-family="Arial" font-size="13px" font-style="normal" font-weight="normal" text-decoration="none" x="133" y="460.5">+listar()</text></g></g><g transform="translate(-14,-102) scale(1,1)"><g><path fill="none" stroke="none"/><text fill="#000000" stroke="none" font-family="Arial" font-size="13px" font-style="normal" font-weight="normal" text-decoration="none" x="133" y="475.5">+consultar()</text></g></g><g transform="translate(-14,-102) scale(1,1)"><rect fill="#C0C0C0" stroke="none" x="375" y="343" width="155.31982421875" height="160" opacity="0.2"/></g><g transform="translate(-14,-102) scale(1,1)"><rect fill="#ffffff" stroke="none" x="368" y="336" width="155.31982421875" height="160"/></g><g transform="translate(-14,-102) scale(1,1)"><path fill="none" stroke="#000000" d="M 368 336 L 523.31982421875 336 L 523.31982421875 496 L 368 496 L 368 336 Z Z" stroke-miterlimit="10"/></g><g transform="translate(-14,-102) scale(1,1)"><path fill="none" stroke="#000000" d="M 368 361 L 523.31982421875 361" stroke-miterlimit="10"/></g><g transform="translate(-14,-102) scale(1,1)"><path fill="none" stroke="#000000" d="M 368 444 L 523.31982421875 444" stroke-miterlimit="10"/></g><g transform="translate(-14,-102) scale(1,1)"><g><path fill="none" stroke="none"/><text fill="#000000" stroke="none" font-family="Arial" font-size="13px" font-style="normal" font-weight="bold" text-decoration="none" x="410.255859375" y="355.5">Menssagem</text></g></g><g transform="translate(-14,-102) scale(1,1)"><g><path fill="none" stroke="none"/><text fill="#000000" stroke="none" font-family="Arial" font-size="13px" font-style="normal" font-weight="normal" text-decoration="none" x="373" y="378.5">+nomeComprador: String</text></g></g><g transform="translate(-14,-102) scale(1,1)"><g><path fill="none" stroke="none"/><text fill="#000000" stroke="none" font-family="Arial" font-size="13px" font-style="normal" font-weight="normal" text-decoration="none" x="373" y="393.5">+quantidade: int</text></g></g><g transform="translate(-14,-102) scale(1,1)"><g><path fill="none" stroke="none"/><text fill="#000000" stroke="none" font-family="Arial" font-size="13px" font-style="normal" font-weight="normal" text-decoration="none" x="373" y="408.5">+telefone: String</text></g></g><g transform="translate(-14,-102) scale(1,1)"><g><path fill="none" stroke="none"/><text fill="#000000" stroke="none" font-family="Arial" font-size="13px" font-style="normal" font-weight="normal" text-decoration="none" x="373" y="423.5">+textoMensagem: String</text></g></g><g transform="translate(-14,-102) scale(1,1)"><g><path fill="none" stroke="none"/><text fill="#000000" stroke="none" font-family="Arial" font-size="13px" font-style="normal" font-weight="normal" text-decoration="none" x="373" y="438.5">+dataTime: Date</text></g></g><g transform="translate(-14,-102) scale(1,1)"><g><path fill="none" stroke="none"/><text fill="#000000" stroke="none" font-family="Arial" font-size="13px" font-style="normal" font-weight="normal" text-decoration="none" x="373" y="461.5">+incluir()</text></g></g><g transform="translate(-14,-102) scale(1,1)"><g><path fill="none" stroke="none"/><text fill="#000000" stroke="none" font-family="Arial" font-size="13px" font-style="normal" font-weight="normal" text-decoration="none" x="373" y="476.5">+excluir()</text></g></g><g transform="translate(-14,-102) scale(1,1)"><g><path fill="none" stroke="none"/><text fill="#000000" stroke="none" font-family="Arial" font-size="13px" font-style="normal" font-weight="normal" text-decoration="none" x="373" y="491.5">+listar()</text></g></g><g transform="translate(-14,-102) scale(1,1)"><path fill="none" stroke="#000000" d="M 265 404 L 367 411" stroke-miterlimit="10"/></g><g transform="translate(-14,-102) scale(1,1)"><g><path fill="none" stroke="none"/><text fill="#000000" stroke="none" font-family="Arial" font-size="13px" font-style="normal" font-weight="normal" text-decoration="none" x="283.5" y="396.5">+1</text></g></g><g transform="translate(-14,-102) scale(1,1)"><g><path fill="none" stroke="none"/><text fill="#000000" stroke="none" font-family="Arial" font-size="13px" font-style="normal" font-weight="normal" text-decoration="none" x="334.5" y="400.5">+n</text></g></g><g transform="translate(-14,-102) scale(1,1)"><path fill="none" stroke="#000000" d="M 245 319 L 282 258" stroke-miterlimit="10"/></g><g transform="translate(-14,-102) scale(1,1)"><g><path fill="none" stroke="none"/><text fill="#000000" stroke="none" font-family="Arial" font-size="13px" font-style="normal" font-weight="normal" text-decoration="none" x="237.5" y="295.5">+n</text></g></g><g transform="translate(-14,-102) scale(1,1)"><g><path fill="none" stroke="none"/><text fill="#000000" stroke="none" font-family="Arial" font-size="13px" font-style="normal" font-weight="normal" text-decoration="none" x="247.5" y="278.5">+1</text></g></g><g transform="translate(-14,-102) scale(1,1)"><path fill="none" stroke="#000000" d="M 365 258 L 404 335" stroke-miterlimit="10"/></g><g transform="translate(-14,-102) scale(1,1)"><g><path fill="none" stroke="none"/><text fill="#000000" stroke="none" font-family="Arial" font-size="13px" font-style="normal" font-weight="normal" text-decoration="none" x="382.5" y="280.5">+1</text></g></g><g transform="translate(-14,-102) scale(1,1)"><g><path fill="none" stroke="none"/><text fill="#000000" stroke="none" font-family="Arial" font-size="13px" font-style="normal" font-weight="normal" text-decoration="none" x="399.5" y="322.5">+n</text></g></g><g transform="translate(-14,-102) scale(1,1)"><rect fill="#C0C0C0" stroke="none" x="31" y="159" width="89.57080078125" height="72" opacity="0.2"/></g><g transform="translate(-14,-102) scale(1,1)"><rect fill="#ffffff" stroke="none" x="24" y="152" width="89.57080078125" height="72"/></g><g transform="translate(-14,-102) scale(1,1)"><path fill="none" stroke="#000000" d="M 24 152 L 113.57080078125 152 L 113.57080078125 224 L 24 224 L 24 152 Z Z" stroke-miterlimit="10"/></g><g transform="translate(-14,-102) scale(1,1)"><path fill="none" stroke="#000000" d="M 24 177 L 113.57080078125 177" stroke-miterlimit="10"/></g><g transform="translate(-14,-102) scale(1,1)"><path fill="none" stroke="#000000" d="M 24 187 L 113.57080078125 187" stroke-miterlimit="10"/></g><g transform="translate(-14,-102) scale(1,1)"><g><path fill="none" stroke="none"/><text fill="#000000" stroke="none" font-family="Arial" font-size="13px" font-style="normal" font-weight="bold" text-decoration="none" x="52.88134765625" y="171.5">Login</text></g></g><g transform="translate(-14,-102) scale(1,1)"><g><path fill="none" stroke="none"/><text fill="#000000" stroke="none" font-family="Arial" font-size="13px" font-style="normal" font-weight="normal" text-decoration="none" x="29" y="204.5">+autenticar()</text></g></g><g transform="translate(-14,-102) scale(1,1)"><g><path fill="none" stroke="none"/><text fill="#000000" stroke="none" font-family="Arial" font-size="13px" font-style="normal" font-weight="normal" text-decoration="none" x="29" y="219.5">+logout()</text></g></g><g transform="translate(-14,-102) scale(1,1)"><path fill="none" stroke="#000000" d="M 115 187 L 255 185" stroke-miterlimit="10"/></g></g></svg>