<svg version="1.1" xmlns="http://www.w3.org/2000/svg" xmlns:xlink="http://www.w3.org/1999/xlink" width="349.57080078125" height="345"><defs/><g><text fill="#eeeeee" stroke="none" font-family="Arial" font-size="24px" font-style="normal" font-weight="normal" text-decoration="none" x="0" y="0">UNREGISTERED</text><text fill="#eeeeee" stroke="none" font-family="Arial" font-size="24px" font-style="normal" font-weight="normal" text-decoration="none" x="0" y="30">UNREGISTERED</text><text fill="#eeeeee" stroke="none" font-family="Arial" font-size="24px" font-style="normal" font-weight="normal" text-decoration="none" x="0" y="60">UNREGISTERED</text><text fill="#eeeeee" stroke="none" font-family="Arial" font-size="24px" font-style="normal" font-weight="normal" text-decoration="none" x="0" y="90">UNREGISTERED</text><text fill="#eeeeee" stroke="none" font-family="Arial" font-size="24px" font-style="normal" font-weight="normal" text-decoration="none" x="0" y="120">UNREGISTERED</text><text fill="#eeeeee" stroke="none" font-family="Arial" font-size="24px" font-style="normal" font-weight="normal" text-decoration="none" x="0" y="150">UNREGISTERED</text><text fill="#eeeeee" stroke="none" font-family="Arial" font-size="24px" font-style="normal" font-weight="normal" text-decoration="none" x="0" y="180">UNREGISTERED</text><text fill="#eeeeee" stroke="none" font-family="Arial" font-size="24px" font-style="normal" font-weight="normal" text-decoration="none" x="0" y="210">UNREGISTERED</text><text fill="#eeeeee" stroke="none" font-family="Arial" font-size="24px" font-style="normal" font-weight="normal" text-decoration="none" x="0" y="240">UNREGISTERED</text><text fill="#eeeeee" stroke="none" font-family="Arial" font-size="24px" font-style="normal" font-weight="normal" text-decoration="none" x="0" y="270">UNREGISTERED</text><text fill="#eeeeee" stroke="none" font-family="Arial" font-size="24px" font-style="normal" font-weight="normal" text-decoration="none" x="0" y="300">UNREGISTERED</text><text fill="#eeeeee" stroke="none" font-family="Arial" font-size="24px" font-style="normal" font-weight="normal" text-decoration="none" x="0" y="330">UNREGISTERED</text><text fill="#eeeeee" stroke="none" font-family="Arial" font-size="24px" font-style="normal" font-weight="normal" text-decoration="none" x="200" y="0">UNREGISTERED</text><text fill="#eeeeee" stroke="none" font-family="Arial" font-size="24px" font-style="normal" font-weight="normal" text-decoration="none" x="200" y="30">UNREGISTERED</text><text fill="#eeeeee" stroke="none" font-family="Arial" font-size="24px" font-style="normal" font-weight="normal" text-decoration="none" x="200" y="60">UNREGISTERED</text><text fill="#eeeeee" stroke="none" font-family="Arial" font-size="24px" font-style="normal" font-weight="normal" text-decoration="none" x="200" y="90">UNREGISTERED</text><text fill="#eeeeee" stroke="none" font-family="Arial" font-size="24px" font-style="normal" font-weight="normal" text-decoration="none" x="200" y="120">UNREGISTERED</text><text fill="#eeeeee" stroke="none" font-family="Arial" font-size="24px" font-style="normal" font-weight="normal" text-decoration="none" x="200" y="150">UNREGISTERED</text><text fill="#eeeeee" stroke="none" font-family="Arial" font-size="24px" font-style="normal" font-weight="normal" text-decoration="none" x="200" y="180">UNREGISTERED</text><text fill="#eeeeee" stroke="none" font-family="Arial" font-size="24px" font-style="normal" font-weight="normal" text-decoration="none" x="200" y="210">UNREGISTERED</text><text fill="#eeeeee" stroke="none" font-family="Arial" font-size="24px" font-style="normal" font-weight="normal" text-decoration="none" x="200" y="240">UNREGISTERED</text><text fill="#eeeeee" stroke="none" font-family="Arial" font-size="24px" font-style="normal" font-weight="normal" text-decoration="none" x="200" y="270">UNREGISTERED</text><text fill="#eeeeee" stroke="none" font-family="Arial" font-size="24px" font-style="normal" font-weight="normal" text-decoration="none" x="200" y="300">UNREGISTERED</text><text fill="#eeeeee" stroke="none" font-family="Arial" font-size="24px" font-style="normal" font-weight="normal" text-decoration="none" x="200" y="330">UNREGISTERED</text><g transform="translate(-262,-166) scale(1,1)"><rect fill="#C0C0C0" stroke="none" x="511" y="191" width="89.57080078125" height="117" opacity="0.2"/></g><g transform="translate(-262,-166) scale(1,1)"><rect fill="#ffffff" stroke="none" x="504" y="184" width="89.57080078125" height="117"/></g><g transform="translate(-262,-166) scale(1,1)"><path fill="none" stroke="#000000" d="M 504 184 L 593.57080078125 184 L 593.57080078125 301 L 504 301 L 504 184 Z Z" stroke-miterlimit="10"/></g><g transform="translate(-262,-166) scale(1,1)"><path fill="none" stroke="#000000" d="M 504 209 L 593.57080078125 209" stroke-miterlimit="10"/></g><g transform="translate(-262,-166) scale(1,1)"><path fill="none" stroke="#000000" d="M 504 219 L 593.57080078125 219" stroke-miterlimit="10"/></g><g transform="translate(-262,-166) scale(1,1)"><g><path fill="none" stroke="none"/><text fill="#000000" stroke="none" font-family="Arial" font-size="13px" font-style="normal" font-weight="bold" text-decoration="none" x="511.937255859375" y="203.5">CMensagem</text></g></g><g transform="translate(-262,-166) scale(1,1)"><g><path fill="none" stroke="none"/><text fill="#000000" stroke="none" font-family="Arial" font-size="13px" font-style="normal" font-weight="normal" text-decoration="none" x="509" y="236.5">+criar()</text></g></g><g transform="translate(-262,-166) scale(1,1)"><g><path fill="none" stroke="none"/><text fill="#000000" stroke="none" font-family="Arial" font-size="13px" font-style="normal" font-weight="normal" text-decoration="none" x="509" y="251.5">+listar()</text></g></g><g transform="translate(-262,-166) scale(1,1)"><g><path fill="none" stroke="none"/><text fill="#000000" stroke="none" font-family="Arial" font-size="13px" font-style="normal" font-weight="normal" text-decoration="none" x="509" y="266.5">+excluir()</text></g></g><g transform="translate(-262,-166) scale(1,1)"><rect fill="#C0C0C0" stroke="none" x="519" y="391" width="89.57080078125" height="117" opacity="0.2"/></g><g transform="translate(-262,-166) scale(1,1)"><rect fill="#ffffff" stroke="none" x="512" y="384" width="89.57080078125" height="117"/></g><g transform="translate(-262,-166) scale(1,1)"><path fill="none" stroke="#000000" d="M 512 384 L 601.57080078125 384 L 601.57080078125 501 L 512 501 L 512 384 Z Z" stroke-miterlimit="10"/></g><g transform="translate(-262,-166) scale(1,1)"><path fill="none" stroke="#000000" d="M 512 409 L 601.57080078125 409" stroke-miterlimit="10"/></g><g transform="translate(-262,-166) scale(1,1)"><path fill="none" stroke="#000000" d="M 512 419 L 601.57080078125 419" stroke-miterlimit="10"/></g><g transform="translate(-262,-166) scale(1,1)"><g><path fill="none" stroke="none"/><text fill="#000000" stroke="none" font-family="Arial" font-size="13px" font-style="normal" font-weight="bold" text-decoration="none" x="519.216796875" y="403.5">MMensagem</text></g></g><g transform="translate(-262,-166) scale(1,1)"><g><path fill="none" stroke="none"/><text fill="#000000" stroke="none" font-family="Arial" font-size="13px" font-style="normal" font-weight="normal" text-decoration="none" x="517" y="436.5">+criar()</text></g></g><g transform="translate(-262,-166) scale(1,1)"><g><path fill="none" stroke="none"/><text fill="#000000" stroke="none" font-family="Arial" font-size="13px" font-style="normal" font-weight="normal" text-decoration="none" x="517" y="451.5">+listar()</text></g></g><g transform="translate(-262,-166) scale(1,1)"><g><path fill="none" stroke="none"/><text fill="#000000" stroke="none" font-family="Arial" font-size="13px" font-style="normal" font-weight="normal" text-decoration="none" x="517" y="466.5">+excluir()</text></g></g><g transform="translate(-262,-166) scale(1,1)"><rect fill="#C0C0C0" stroke="none" x="303" y="183" width="89.57080078125" height="117" opacity="0.2"/></g><g transform="translate(-262,-166) scale(1,1)"><rect fill="#ffffff" stroke="none" x="296" y="176" width="89.57080078125" height="117"/></g><g transform="translate(-262,-166) scale(1,1)"><path fill="none" stroke="#000000" d="M 296 176 L 385.57080078125 176 L 385.57080078125 293 L 296 293 L 296 176 Z Z" stroke-miterlimit="10"/></g><g transform="translate(-262,-166) scale(1,1)"><path fill="none" stroke="#000000" d="M 296 201 L 385.57080078125 201" stroke-miterlimit="10"/></g><g transform="translate(-262,-166) scale(1,1)"><path fill="none" stroke="#000000" d="M 296 211 L 385.57080078125 211" stroke-miterlimit="10"/></g><g transform="translate(-262,-166) scale(1,1)"><g><path fill="none" stroke="none"/><text fill="#000000" stroke="none" font-family="Arial" font-size="13px" font-style="normal" font-weight="bold" text-decoration="none" x="304.2958984375" y="195.5">VMensagem</text></g></g><g transform="translate(-262,-166) scale(1,1)"><g><path fill="none" stroke="none"/><text fill="#000000" stroke="none" font-family="Arial" font-size="13px" font-style="normal" font-weight="normal" text-decoration="none" x="301" y="228.5">+criar()</text></g></g><g transform="translate(-262,-166) scale(1,1)"><g><path fill="none" stroke="none"/><text fill="#000000" stroke="none" font-family="Arial" font-size="13px" font-style="normal" font-weight="normal" text-decoration="none" x="301" y="243.5">+listar()</text></g></g><g transform="translate(-262,-166) scale(1,1)"><g><path fill="none" stroke="none"/><text fill="#000000" stroke="none" font-family="Arial" font-size="13px" font-style="normal" font-weight="normal" text-decoration="none" x="301" y="258.5">+excluir()</text></g></g><g transform="translate(-262,-166) scale(1,1)"><rect fill="#C0C0C0" stroke="none" x="279" y="383" width="155.31982421875" height="117" opacity="0.2"/></g><g transform="translate(-262,-166) scale(1,1)"><rect fill="#ffffff" stroke="none" x="272" y="376" width="155.31982421875" height="117"/></g><g transform="translate(-262,-166) scale(1,1)"><path fill="none" stroke="#000000" d="M 272 376 L 427.31982421875 376 L 427.31982421875 493 L 272 493 L 272 376 Z Z" stroke-miterlimit="10"/></g><g transform="translate(-262,-166) scale(1,1)"><path fill="none" stroke="#000000" d="M 272 401 L 427.31982421875 401" stroke-miterlimit="10"/></g><g transform="translate(-262,-166) scale(1,1)"><path fill="none" stroke="#000000" d="M 272 484 L 427.31982421875 484" stroke-miterlimit="10"/></g><g transform="translate(-262,-166) scale(1,1)"><g><path fill="none" stroke="none"/><text fill="#000000" stroke="none" font-family="Arial" font-size="13px" font-style="normal" font-weight="bold" text-decoration="none" x="313.17041015625" y="395.5">EMensagem</text></g></g><g transform="translate(-262,-166) scale(1,1)"><g><path fill="none" stroke="none"/><text fill="#000000" stroke="none" font-family="Arial" font-size="13px" font-style="normal" font-weight="normal" text-decoration="none" x="277" y="418.5">+nomeComprador: String</text></g></g><g transform="translate(-262,-166) scale(1,1)"><g><path fill="none" stroke="none"/><text fill="#000000" stroke="none" font-family="Arial" font-size="13px" font-style="normal" font-weight="normal" text-decoration="none" x="277" y="433.5">+quantidade: int</text></g></g><g transform="translate(-262,-166) scale(1,1)"><g><path fill="none" stroke="none"/><text fill="#000000" stroke="none" font-family="Arial" font-size="13px" font-style="normal" font-weight="normal" text-decoration="none" x="277" y="448.5">+telefone: String</text></g></g><g transform="translate(-262,-166) scale(1,1)"><g><path fill="none" stroke="none"/><text fill="#000000" stroke="none" font-family="Arial" font-size="13px" font-style="normal" font-weight="normal" text-decoration="none" x="277" y="463.5">+textoMensagem: String</text></g></g><g transform="translate(-262,-166) scale(1,1)"><g><path fill="none" stroke="none"/><text fill="#000000" stroke="none" font-family="Arial" font-size="13px" font-style="normal" font-weight="normal" text-decoration="none" x="277" y="478.5">+dataTime: Date</text></g></g><g transform="translate(-262,-166) scale(1,1)"><path fill="none" stroke="#000000" d="M 503 240 L 387 236" stroke-miterlimit="10" stroke-dasharray="3"/></g><g transform="translate(-262,-166) scale(1,1)"><path fill="none" stroke="#000000" d="M 397.30170778424974 232.1432116044656 L 387 236 L 397.01156866012917 240.55724620396126" stroke-miterlimit="10"/></g><g transform="translate(-262,-166) scale(1,1)"><path fill="none" stroke="#000000" d="M 554 383 L 550 302" stroke-miterlimit="10" stroke-dasharray="3"/></g><g transform="translate(-262,-166) scale(1,1)"><path fill="none" stroke="#000000" d="M 554.7056440210096 311.94268144654836 L 550 302 L 546.2968553230737 312.3579302711378" stroke-miterlimit="10"/></g><g transform="translate(-262,-166) scale(1,1)"><path fill="none" stroke="#000000" d="M 346 375 L 343 294" stroke-miterlimit="10" stroke-dasharray="3"/></g><g transform="translate(-262,-166) scale(1,1)"><path fill="none" stroke="#000000" d="M 347.58277100829406 303.9999104938764 L 343 294 L 339.1695039351113 304.3115129780684" stroke-miterlimit="10"/></g><g transform="translate(-262,-166) scale(1,1)"><path fill="none" stroke="#000000" d="M 428 437 L 511 440" stroke-miterlimit="10" stroke-dasharray="3"/></g><g transform="translate(-262,-166) scale(1,1)"><path fill="none" stroke="#000000" d="M 500.69190510543353 443.8396848366257 L 511 440 L 500.9960090133404 435.42614338453484" stroke-miterlimit="10"/></g><g transform="translate(-262,-166) scale(1,1)"><path fill="none" stroke="#000000" d="M 410 375 L 503 285" stroke-miterlimit="10" stroke-dasharray="3"/></g><g transform="translate(-262,-166) scale(1,1)"><path fill="none" stroke="#000000" d="M 498.6244689282766 295.0923103321481 L 503 285 L 492.769691234191 289.04237338159294" stroke-miterlimit="10"/></g></g></svg>