<svg version="1.1" xmlns="http://www.w3.org/2000/svg" xmlns:xlink="http://www.w3.org/1999/xlink" width="103.40087890625" height="114"><defs/><g><text fill="#eeeeee" stroke="none" font-family="Arial" font-size="24px" font-style="normal" font-weight="normal" text-decoration="none" x="0" y="0">UNREGISTERED</text><text fill="#eeeeee" stroke="none" font-family="Arial" font-size="24px" font-style="normal" font-weight="normal" text-decoration="none" x="0" y="30">UNREGISTERED</text><text fill="#eeeeee" stroke="none" font-family="Arial" font-size="24px" font-style="normal" font-weight="normal" text-decoration="none" x="0" y="60">UNREGISTERED</text><text fill="#eeeeee" stroke="none" font-family="Arial" font-size="24px" font-style="normal" font-weight="normal" text-decoration="none" x="0" y="90">UNREGISTERED</text><g transform="translate(-247,-238) scale(1,1)"><path fill="#ffffff" stroke="none" d="M 290.02116672585225 257.68 C 290.02116672585225 252.886167936 293.90700905079774 249 298.700439453125 249 C 303.49386985545226 249 307.37971218039775 252.886167936 307.37971218039775 257.68 C 307.37971218039775 262.473832064 303.49386985545226 266.36 298.700439453125 266.36 C 293.90700905079774 266.36 290.02116672585225 262.473832064 290.02116672585225 257.68 Z"/></g><g transform="translate(-247,-238) scale(1,1)"><path fill="none" stroke="#000000" d="M 290.02116672585225 257.68 C 290.02116672585225 252.886167936 293.90700905079774 249 298.700439453125 249 C 303.49386985545226 249 307.37971218039775 252.886167936 307.37971218039775 257.68 C 307.37971218039775 262.473832064 303.49386985545226 266.36 298.700439453125 266.36 C 293.90700905079774 266.36 290.02116672585225 262.473832064 290.02116672585225 257.68 Z" stroke-miterlimit="10"/></g><g transform="translate(-247,-238) scale(1,1)"><path fill="none" stroke="#000000" d="M 298.700439453125 266.36 L 298.700439453125 283.64" stroke-miterlimit="10"/></g><g transform="translate(-247,-238) scale(1,1)"><path fill="none" stroke="#000000" d="M 289.51062127130683 272.84 L 307.89025763494317 272.84" stroke-miterlimit="10"/></g><g transform="translate(-247,-238) scale(1,1)"><path fill="none" stroke="#000000" d="M 298.700439453125 283.64 L 285.93680308948865 301" stroke-miterlimit="10"/></g><g transform="translate(-247,-238) scale(1,1)"><path fill="none" stroke="#000000" d="M 298.700439453125 283.64 L 311.46407581676135 301" stroke-miterlimit="10"/></g><g transform="translate(-247,-238) scale(1,1)"><g><path fill="none" stroke="none"/><text fill="#000000" stroke="none" font-family="Arial" font-size="13px" font-style="normal" font-weight="bold" text-decoration="none" x="267.6318359375" y="321.5">comprador</text></g></g><g transform="translate(-247,-238) scale(1,1)"><g><path fill="none" stroke="none"/><text fill="#000000" stroke="none" font-family="Arial" font-size="13px" font-style="normal" font-weight="normal" text-decoration="none" x="261.5" y="336.5">(from atores)</text></g></g></g></svg>