<svg version="1.1" xmlns="http://www.w3.org/2000/svg" xmlns:xlink="http://www.w3.org/1999/xlink" width="634" height="226"><defs/><g><text fill="#eeeeee" stroke="none" font-family="Arial" font-size="24px" font-style="normal" font-weight="normal" text-decoration="none" x="0" y="0">UNREGISTERED</text><text fill="#eeeeee" stroke="none" font-family="Arial" font-size="24px" font-style="normal" font-weight="normal" text-decoration="none" x="0" y="30">UNREGISTERED</text><text fill="#eeeeee" stroke="none" font-family="Arial" font-size="24px" font-style="normal" font-weight="normal" text-decoration="none" x="0" y="60">UNREGISTERED</text><text fill="#eeeeee" stroke="none" font-family="Arial" font-size="24px" font-style="normal" font-weight="normal" text-decoration="none" x="0" y="90">UNREGISTERED</text><text fill="#eeeeee" stroke="none" font-family="Arial" font-size="24px" font-style="normal" font-weight="normal" text-decoration="none" x="0" y="120">UNREGISTERED</text><text fill="#eeeeee" stroke="none" font-family="Arial" font-size="24px" font-style="normal" font-weight="normal" text-decoration="none" x="0" y="150">UNREGISTERED</text><text fill="#eeeeee" stroke="none" font-family="Arial" font-size="24px" font-style="normal" font-weight="normal" text-decoration="none" x="0" y="180">UNREGISTERED</text><text fill="#eeeeee" stroke="none" font-family="Arial" font-size="24px" font-style="normal" font-weight="normal" text-decoration="none" x="0" y="210">UNREGISTERED</text><text fill="#eeeeee" stroke="none" font-family="Arial" font-size="24px" font-style="normal" font-weight="normal" text-decoration="none" x="200" y="0">UNREGISTERED</text><text fill="#eeeeee" stroke="none" font-family="Arial" font-size="24px" font-style="normal" font-weight="normal" text-decoration="none" x="200" y="30">UNREGISTERED</text><text fill="#eeeeee" stroke="none" font-family="Arial" font-size="24px" font-style="normal" font-weight="normal" text-decoration="none" x="200" y="60">UNREGISTERED</text><text fill="#eeeeee" stroke="none" font-family="Arial" font-size="24px" font-style="normal" font-weight="normal" text-decoration="none" x="200" y="90">UNREGISTERED</text><text fill="#eeeeee" stroke="none" font-family="Arial" font-size="24px" font-style="normal" font-weight="normal" text-decoration="none" x="200" y="120">UNREGISTERED</text><text fill="#eeeeee" stroke="none" font-family="Arial" font-size="24px" font-style="normal" font-weight="normal" text-decoration="none" x="200" y="150">UNREGISTERED</text><text fill="#eeeeee" stroke="none" font-family="Arial" font-size="24px" font-style="normal" font-weight="normal" text-decoration="none" x="200" y="180">UNREGISTERED</text><text fill="#eeeeee" stroke="none" font-family="Arial" font-size="24px" font-style="normal" font-weight="normal" text-decoration="none" x="200" y="210">UNREGISTERED</text><text fill="#eeeeee" stroke="none" font-family="Arial" font-size="24px" font-style="normal" font-weight="normal" text-decoration="none" x="400" y="0">UNREGISTERED</text><text fill="#eeeeee" stroke="none" font-family="Arial" font-size="24px" font-style="normal" font-weight="normal" text-decoration="none" x="400" y="30">UNREGISTERED</text><text fill="#eeeeee" stroke="none" font-family="Arial" font-size="24px" font-style="normal" font-weight="normal" text-decoration="none" x="400" y="60">UNREGISTERED</text><text fill="#eeeeee" stroke="none" font-family="Arial" font-size="24px" font-style="normal" font-weight="normal" text-decoration="none" x="400" y="90">UNREGISTERED</text><text fill="#eeeeee" stroke="none" font-family="Arial" font-size="24px" font-style="normal" font-weight="normal" text-decoration="none" x="400" y="120">UNREGISTERED</text><text fill="#eeeeee" stroke="none" font-family="Arial" font-size="24px" font-style="normal" font-weight="normal" text-decoration="none" x="400" y="150">UNREGISTERED</text><text fill="#eeeeee" stroke="none" font-family="Arial" font-size="24px" font-style="normal" font-weight="normal" text-decoration="none" x="400" y="180">UNREGISTERED</text><text fill="#eeeeee" stroke="none" font-family="Arial" font-size="24px" font-style="normal" font-weight="normal" text-decoration="none" x="400" y="210">UNREGISTERED</text><text fill="#eeeeee" stroke="none" font-family="Arial" font-size="24px" font-style="normal" font-weight="normal" text-decoration="none" x="600" y="0">UNREGISTERED</text><text fill="#eeeeee" stroke="none" font-family="Arial" font-size="24px" font-style="normal" font-weight="normal" text-decoration="none" x="600" y="30">UNREGISTERED</text><text fill="#eeeeee" stroke="none" font-family="Arial" font-size="24px" font-style="normal" font-weight="normal" text-decoration="none" x="600" y="60">UNREGISTERED</text><text fill="#eeeeee" stroke="none" font-family="Arial" font-size="24px" font-style="normal" font-weight="normal" text-decoration="none" x="600" y="90">UNREGISTERED</text><text fill="#eeeeee" stroke="none" font-family="Arial" font-size="24px" font-style="normal" font-weight="normal" text-decoration="none" x="600" y="120">UNREGISTERED</text><text fill="#eeeeee" stroke="none" font-family="Arial" font-size="24px" font-style="normal" font-weight="normal" text-decoration="none" x="600" y="150">UNREGISTERED</text><text fill="#eeeeee" stroke="none" font-family="Arial" font-size="24px" font-style="normal" font-weight="normal" text-decoration="none" x="600" y="180">UNREGISTERED</text><text fill="#eeeeee" stroke="none" font-family="Arial" font-size="24px" font-style="normal" font-weight="normal" text-decoration="none" x="600" y="210">UNREGISTERED</text><g transform="translate(-142,-94) scale(1,1)"><path fill="#C0C0C0" stroke="none" d="M 423 266.5 C 423 251.31216799999999 462.17508 239 510.5 239 C 558.82492 239 598 251.31216799999999 598 266.5 C 598 281.687832 558.82492 294 510.5 294 C 462.17508 294 423 281.687832 423 266.5 Z" opacity="0.2"/></g><g transform="translate(-142,-94) scale(1,1)"><path fill="#ffffff" stroke="none" d="M 416 259.5 C 416 244.31216799999999 455.17508 232 503.5 232 C 551.82492 232 591 244.31216799999999 591 259.5 C 591 274.687832 551.82492 287 503.5 287 C 455.17508 287 416 274.687832 416 259.5 Z"/></g><g transform="translate(-142,-94) scale(1,1)"><path fill="none" stroke="#000000" d="M 416 259.5 C 416 244.31216799999999 455.17508 232 503.5 232 C 551.82492 232 591 244.31216799999999 591 259.5 C 591 274.687832 551.82492 287 503.5 287 C 455.17508 287 416 274.687832 416 259.5 Z" stroke-miterlimit="10"/></g><g transform="translate(-142,-94) scale(1,1)"><g><path fill="none" stroke="none"/><text fill="#000000" stroke="none" font-family="Arial" font-size="13px" font-style="normal" font-weight="bold" text-decoration="none" x="449.31005859375" y="259">manter mensagem</text></g></g><g transform="translate(-142,-94) scale(1,1)"><g><path fill="none" stroke="none"/><text fill="#000000" stroke="none" font-family="Arial" font-size="13px" font-style="normal" font-weight="normal" text-decoration="none" x="449.313232421875" y="274">(from caso de uso)</text></g></g><g transform="translate(-142,-94) scale(1,1)"><path fill="#ffffff" stroke="none" d="M 185.02116672585228 225.68 C 185.02116672585228 220.886167936 188.90700905079774 217 193.700439453125 217 C 198.49386985545226 217 202.37971218039772 220.886167936 202.37971218039772 225.68 C 202.37971218039772 230.47383206400002 198.49386985545226 234.36 193.700439453125 234.36 C 188.90700905079774 234.36 185.02116672585228 230.47383206400002 185.02116672585228 225.68 Z"/></g><g transform="translate(-142,-94) scale(1,1)"><path fill="none" stroke="#000000" d="M 185.02116672585228 225.68 C 185.02116672585228 220.886167936 188.90700905079774 217 193.700439453125 217 C 198.49386985545226 217 202.37971218039772 220.886167936 202.37971218039772 225.68 C 202.37971218039772 230.47383206400002 198.49386985545226 234.36 193.700439453125 234.36 C 188.90700905079774 234.36 185.02116672585228 230.47383206400002 185.02116672585228 225.68 Z" stroke-miterlimit="10"/></g><g transform="translate(-142,-94) scale(1,1)"><path fill="none" stroke="#000000" d="M 193.700439453125 234.36 L 193.700439453125 251.64" stroke-miterlimit="10"/></g><g transform="translate(-142,-94) scale(1,1)"><path fill="none" stroke="#000000" d="M 184.51062127130683 240.84 L 202.89025763494317 240.84" stroke-miterlimit="10"/></g><g transform="translate(-142,-94) scale(1,1)"><path fill="none" stroke="#000000" d="M 193.700439453125 251.64 L 180.93680308948865 269" stroke-miterlimit="10"/></g><g transform="translate(-142,-94) scale(1,1)"><path fill="none" stroke="#000000" d="M 193.700439453125 251.64 L 206.46407581676135 269" stroke-miterlimit="10"/></g><g transform="translate(-142,-94) scale(1,1)"><g><path fill="none" stroke="none"/><text fill="#000000" stroke="none" font-family="Arial" font-size="13px" font-style="normal" font-weight="bold" text-decoration="none" x="177.082275390625" y="289.5">lojista</text></g></g><g transform="translate(-142,-94) scale(1,1)"><g><path fill="none" stroke="none"/><text fill="#000000" stroke="none" font-family="Arial" font-size="13px" font-style="normal" font-weight="normal" text-decoration="none" x="156.5" y="304.5">(from atores)</text></g></g><g transform="translate(-142,-94) scale(1,1)"><path fill="none" stroke="#000000" d="M 236 262 L 415 260" stroke-miterlimit="10"/></g><g transform="translate(-142,-94) scale(1,1)"><path fill="none" stroke="#000000" d="M 404.88499021977276 264.32279737506946 L 415 260 L 404.79092865502605 255.90428733024007" stroke-miterlimit="10"/></g><g transform="translate(-142,-94) scale(1,1)"><path fill="#C0C0C0" stroke="none" d="M 607 162.5 C 607 147.31216799999999 644.1603616 135 690 135 C 735.8396384 135 773 147.31216799999999 773 162.5 C 773 177.68783200000001 735.8396384 190 690 190 C 644.1603616 190 607 177.68783200000001 607 162.5 Z" opacity="0.2"/></g><g transform="translate(-142,-94) scale(1,1)"><path fill="#ffffff" stroke="none" d="M 600 155.5 C 600 140.31216799999999 637.1603616 128 683 128 C 728.8396384 128 766 140.31216799999999 766 155.5 C 766 170.68783200000001 728.8396384 183 683 183 C 637.1603616 183 600 170.68783200000001 600 155.5 Z"/></g><g transform="translate(-142,-94) scale(1,1)"><path fill="none" stroke="#000000" d="M 600 155.5 C 600 140.31216799999999 637.1603616 128 683 128 C 728.8396384 128 766 140.31216799999999 766 155.5 C 766 170.68783200000001 728.8396384 183 683 183 C 637.1603616 183 600 170.68783200000001 600 155.5 Z" stroke-miterlimit="10"/></g><g transform="translate(-142,-94) scale(1,1)"><g><path fill="none" stroke="none"/><text fill="#000000" stroke="none" font-family="Arial" font-size="13px" font-style="normal" font-weight="bold" text-decoration="none" x="636.40185546875" y="155">criar mensagem</text></g></g><g transform="translate(-142,-94) scale(1,1)"><g><path fill="none" stroke="none"/><text fill="#000000" stroke="none" font-family="Arial" font-size="13px" font-style="normal" font-weight="normal" text-decoration="none" x="628.813232421875" y="170">(from caso de uso)</text></g></g><g transform="translate(-142,-94) scale(1,1)"><path fill="#ffffff" stroke="none" d="M 185.02116672585228 113.68 C 185.02116672585228 108.886167936 188.90700905079774 105 193.700439453125 105 C 198.49386985545226 105 202.37971218039772 108.886167936 202.37971218039772 113.68 C 202.37971218039772 118.473832064 198.49386985545226 122.36 193.700439453125 122.36 C 188.90700905079774 122.36 185.02116672585228 118.473832064 185.02116672585228 113.68 Z"/></g><g transform="translate(-142,-94) scale(1,1)"><path fill="none" stroke="#000000" d="M 185.02116672585228 113.68 C 185.02116672585228 108.886167936 188.90700905079774 105 193.700439453125 105 C 198.49386985545226 105 202.37971218039772 108.886167936 202.37971218039772 113.68 C 202.37971218039772 118.473832064 198.49386985545226 122.36 193.700439453125 122.36 C 188.90700905079774 122.36 185.02116672585228 118.473832064 185.02116672585228 113.68 Z" stroke-miterlimit="10"/></g><g transform="translate(-142,-94) scale(1,1)"><path fill="none" stroke="#000000" d="M 193.700439453125 122.36 L 193.700439453125 139.64" stroke-miterlimit="10"/></g><g transform="translate(-142,-94) scale(1,1)"><path fill="none" stroke="#000000" d="M 184.51062127130683 128.84 L 202.89025763494317 128.84" stroke-miterlimit="10"/></g><g transform="translate(-142,-94) scale(1,1)"><path fill="none" stroke="#000000" d="M 193.700439453125 139.64 L 180.93680308948865 157" stroke-miterlimit="10"/></g><g transform="translate(-142,-94) scale(1,1)"><path fill="none" stroke="#000000" d="M 193.700439453125 139.64 L 206.46407581676135 157" stroke-miterlimit="10"/></g><g transform="translate(-142,-94) scale(1,1)"><g><path fill="none" stroke="none"/><text fill="#000000" stroke="none" font-family="Arial" font-size="13px" font-style="normal" font-weight="bold" text-decoration="none" x="162.6318359375" y="177.5">comprador</text></g></g><g transform="translate(-142,-94) scale(1,1)"><g><path fill="none" stroke="none"/><text fill="#000000" stroke="none" font-family="Arial" font-size="13px" font-style="normal" font-weight="normal" text-decoration="none" x="156.5" y="192.5">(from atores)</text></g></g><g transform="translate(-142,-94) scale(1,1)"><path fill="none" stroke="#000000" d="M 633 184 L 551 231" stroke-miterlimit="10" stroke-dasharray="3"/></g><g transform="translate(-142,-94) scale(1,1)"><path fill="none" stroke="#000000" d="M 557.7237479260513 222.29418505670372 L 551 231 L 561.9103485356599 229.5984669713399" stroke-miterlimit="10"/></g><g transform="translate(-142,-94) scale(1,1)"><g><path fill="none" stroke="none"/><text fill="#000000" stroke="none" font-family="Arial" font-size="13px" font-style="normal" font-weight="normal" text-decoration="none" x="580.5" y="238.5">«extend»</text></g></g><g transform="translate(-142,-94) scale(1,1)"><path fill="none" stroke="#000000" d="M 236 151 L 599 154" stroke-miterlimit="10"/></g><g transform="translate(-142,-94) scale(1,1)"><path fill="none" stroke="#000000" d="M 588.8028839718602 158.12538782524177 L 599 154 L 588.8724604017034 149.70663981420915" stroke-miterlimit="10"/></g></g></svg>